<svg width="513" height="201" viewBox="0 0 513 201" fill="none" xmlns="http://www.w3.org/2000/svg">
<path fill-rule="evenodd" clip-rule="evenodd" d="M0 0L12.3975 23.45C24.3675 46.9 48.735 93.8 73.1025 117.25C97.8975 140.7 122.265 140.7 146.633 120.6C171 100.5 195.368 60.3 219.735 60.3C244.103 60.3 268.897 100.5 293.265 100.5C317.633 100.5 342 60.3 366.368 43.55C390.735 26.8 415.103 33.5 439.898 43.55C464.265 53.6 488.633 67 500.603 73.7L513 80.4V201H500.603C488.633 201 464.265 201 439.898 201C415.103 201 390.735 201 366.368 201C342 201 317.633 201 293.265 201C268.897 201 244.103 201 219.735 201C195.368 201 171 201 146.633 201C122.265 201 97.8975 201 73.1025 201C48.735 201 24.3675 201 12.3975 201H0V0Z" fill="#002C9E"/>
<path d="M60.75 161.469H64.3828L64.5469 165.266C65.2344 164.453 65.8984 163.781 66.5391 163.25C67.1797 162.703 67.8047 162.266 68.4141 161.938C69.0391 161.609 69.6719 161.383 70.3125 161.258C70.9531 161.117 71.6172 161.047 72.3047 161.047C74.7266 161.047 76.5547 161.766 77.7891 163.203C79.0391 164.625 79.6641 166.773 79.6641 169.648V185H75.5859V169.977C75.5859 168.133 75.2422 166.773 74.5547 165.898C73.8672 165.008 72.8438 164.562 71.4844 164.562C70.9844 164.562 70.4922 164.641 70.0078 164.797C69.5391 164.938 69.0469 165.195 68.5312 165.57C68.0156 165.93 67.4531 166.422 66.8438 167.047C66.25 167.672 65.5781 168.453 64.8281 169.391V185H60.75V161.469ZM107.25 172.812C107.25 174.906 106.953 176.734 106.359 178.297C105.781 179.859 104.977 181.156 103.945 182.188C102.914 183.219 101.695 183.992 100.289 184.508C98.8828 185.023 97.3594 185.281 95.7188 185.281C94.9688 185.281 94.2188 185.242 93.4688 185.164C92.7344 185.086 91.9844 184.953 91.2188 184.766V194.609H87.1406V161.469H90.7734L91.0312 165.406C92.2031 163.797 93.4531 162.672 94.7812 162.031C96.1094 161.375 97.5469 161.047 99.0938 161.047C100.438 161.047 101.617 161.328 102.633 161.891C103.648 162.453 104.5 163.25 105.188 164.281C105.875 165.297 106.391 166.531 106.734 167.984C107.078 169.422 107.25 171.031 107.25 172.812ZM103.078 173C103.078 171.766 102.984 170.633 102.797 169.602C102.625 168.57 102.344 167.688 101.953 166.953C101.562 166.219 101.062 165.648 100.453 165.242C99.8438 164.82 99.1172 164.609 98.2734 164.609C97.7578 164.609 97.2344 164.695 96.7031 164.867C96.1719 165.023 95.6172 165.297 95.0391 165.688C94.4766 166.062 93.875 166.57 93.2344 167.211C92.6094 167.836 91.9375 168.617 91.2188 169.555V180.969C91.9688 181.281 92.7578 181.531 93.5859 181.719C94.4141 181.891 95.2266 181.977 96.0234 181.977C98.2266 181.977 99.9531 181.234 101.203 179.75C102.453 178.25 103.078 176 103.078 173ZM130.312 185V168.102C130.312 167.367 130.281 166.766 130.219 166.297C130.172 165.828 130.086 165.461 129.961 165.195C129.852 164.914 129.703 164.719 129.516 164.609C129.344 164.5 129.125 164.445 128.859 164.445C128.547 164.445 128.258 164.539 127.992 164.727C127.727 164.914 127.438 165.219 127.125 165.641C126.828 166.062 126.492 166.625 126.117 167.328C125.758 168.016 125.328 168.867 124.828 169.883V185H121.102V168.547C121.102 167.688 121.07 166.992 121.008 166.461C120.961 165.93 120.875 165.516 120.75 165.219C120.641 164.922 120.492 164.719 120.305 164.609C120.117 164.5 119.891 164.445 119.625 164.445C119.344 164.445 119.078 164.523 118.828 164.68C118.578 164.836 118.297 165.117 117.984 165.523C117.688 165.93 117.352 166.484 116.977 167.188C116.602 167.891 116.156 168.789 115.641 169.883V185H111.891V161.469H115.008L115.195 165.945C115.602 165.055 115.992 164.297 116.367 163.672C116.758 163.047 117.156 162.547 117.562 162.172C117.969 161.781 118.398 161.5 118.852 161.328C119.32 161.141 119.836 161.047 120.398 161.047C121.664 161.047 122.625 161.461 123.281 162.289C123.938 163.117 124.266 164.398 124.266 166.133C124.641 165.32 125.008 164.602 125.367 163.977C125.727 163.336 126.109 162.805 126.516 162.383C126.938 161.945 127.398 161.617 127.898 161.398C128.398 161.164 128.977 161.047 129.633 161.047C132.586 161.047 134.062 163.32 134.062 167.867V185H130.312ZM174.328 164.844H167.367V161.469H178.453V181.602H185.461V185H166.594V181.602H174.328V164.844ZM175.758 151.602C176.211 151.602 176.633 151.688 177.023 151.859C177.414 152.016 177.75 152.242 178.031 152.539C178.328 152.836 178.555 153.18 178.711 153.57C178.883 153.945 178.969 154.359 178.969 154.812C178.969 155.25 178.883 155.664 178.711 156.055C178.555 156.445 178.328 156.789 178.031 157.086C177.75 157.383 177.414 157.617 177.023 157.789C176.633 157.945 176.211 158.023 175.758 158.023C175.305 158.023 174.883 157.945 174.492 157.789C174.102 157.617 173.758 157.383 173.461 157.086C173.18 156.789 172.953 156.445 172.781 156.055C172.625 155.664 172.547 155.25 172.547 154.812C172.547 154.359 172.625 153.945 172.781 153.57C172.953 153.18 173.18 152.836 173.461 152.539C173.758 152.242 174.102 152.016 174.492 151.859C174.883 151.688 175.305 151.602 175.758 151.602ZM192.703 161.469H196.336L196.5 165.266C197.188 164.453 197.852 163.781 198.492 163.25C199.133 162.703 199.758 162.266 200.367 161.938C200.992 161.609 201.625 161.383 202.266 161.258C202.906 161.117 203.57 161.047 204.258 161.047C206.68 161.047 208.508 161.766 209.742 163.203C210.992 164.625 211.617 166.773 211.617 169.648V185H207.539V169.977C207.539 168.133 207.195 166.773 206.508 165.898C205.82 165.008 204.797 164.562 203.438 164.562C202.938 164.562 202.445 164.641 201.961 164.797C201.492 164.938 201 165.195 200.484 165.57C199.969 165.93 199.406 166.422 198.797 167.047C198.203 167.672 197.531 168.453 196.781 169.391V185H192.703V161.469ZM237.727 178.578C237.727 179.406 237.586 180.148 237.305 180.805C237.023 181.461 236.641 182.047 236.156 182.562C235.672 183.062 235.109 183.492 234.469 183.852C233.828 184.211 233.141 184.508 232.406 184.742C231.688 184.977 230.945 185.148 230.18 185.258C229.414 185.367 228.664 185.422 227.93 185.422C226.336 185.422 224.867 185.352 223.523 185.211C222.195 185.07 220.891 184.844 219.609 184.531V180.781C220.984 181.172 222.352 181.469 223.711 181.672C225.07 181.875 226.422 181.977 227.766 181.977C229.719 181.977 231.164 181.711 232.102 181.18C233.039 180.648 233.508 179.891 233.508 178.906C233.508 178.484 233.43 178.109 233.273 177.781C233.133 177.438 232.867 177.117 232.477 176.82C232.086 176.508 231.477 176.188 230.648 175.859C229.836 175.531 228.719 175.156 227.297 174.734C226.234 174.422 225.25 174.07 224.344 173.68C223.453 173.273 222.68 172.797 222.023 172.25C221.367 171.703 220.852 171.062 220.477 170.328C220.102 169.594 219.914 168.727 219.914 167.727C219.914 167.07 220.062 166.352 220.359 165.57C220.672 164.789 221.195 164.062 221.93 163.391C222.664 162.719 223.656 162.164 224.906 161.727C226.156 161.273 227.719 161.047 229.594 161.047C230.516 161.047 231.539 161.102 232.664 161.211C233.789 161.305 234.961 161.477 236.18 161.727V165.359C234.898 165.047 233.68 164.82 232.523 164.68C231.383 164.523 230.391 164.445 229.547 164.445C228.531 164.445 227.672 164.523 226.969 164.68C226.281 164.836 225.719 165.055 225.281 165.336C224.859 165.602 224.555 165.922 224.367 166.297C224.18 166.656 224.086 167.047 224.086 167.469C224.086 167.891 224.164 168.273 224.32 168.617C224.492 168.961 224.797 169.297 225.234 169.625C225.688 169.938 226.312 170.258 227.109 170.586C227.906 170.898 228.945 171.242 230.227 171.617C231.617 172.023 232.789 172.453 233.742 172.906C234.695 173.344 235.469 173.836 236.062 174.383C236.656 174.93 237.078 175.547 237.328 176.234C237.594 176.922 237.727 177.703 237.727 178.578ZM264.445 184.672C263.523 184.906 262.57 185.07 261.586 185.164C260.602 185.273 259.602 185.328 258.586 185.328C255.633 185.328 253.43 184.664 251.977 183.336C250.523 181.992 249.797 179.938 249.797 177.172V164.891H243.211V161.469H249.797V155L253.875 153.945V161.469H264.445V164.891H253.875V176.844C253.875 178.531 254.32 179.797 255.211 180.641C256.117 181.469 257.445 181.883 259.195 181.883C259.945 181.883 260.766 181.828 261.656 181.719C262.547 181.594 263.477 181.406 264.445 181.156V184.672ZM286.992 185L286.898 181.836C285.617 183.102 284.312 184.016 282.984 184.578C281.672 185.141 280.289 185.422 278.836 185.422C277.492 185.422 276.344 185.25 275.391 184.906C274.438 184.562 273.648 184.094 273.023 183.5C272.414 182.891 271.961 182.18 271.664 181.367C271.383 180.555 271.242 179.672 271.242 178.719C271.242 176.359 272.117 174.516 273.867 173.188C275.633 171.844 278.234 171.172 281.672 171.172H286.547V169.109C286.547 167.719 286.102 166.609 285.211 165.781C284.32 164.938 282.961 164.516 281.133 164.516C279.805 164.516 278.492 164.664 277.195 164.961C275.914 165.258 274.586 165.68 273.211 166.227V162.547C273.727 162.359 274.297 162.18 274.922 162.008C275.562 161.82 276.234 161.656 276.938 161.516C277.641 161.375 278.375 161.266 279.141 161.188C279.906 161.094 280.68 161.047 281.461 161.047C282.883 161.047 284.164 161.203 285.305 161.516C286.445 161.828 287.406 162.305 288.188 162.945C288.984 163.586 289.594 164.391 290.016 165.359C290.438 166.328 290.648 167.469 290.648 168.781V185H286.992ZM286.547 174.289H281.367C280.352 174.289 279.477 174.391 278.742 174.594C278.008 174.797 277.406 175.086 276.938 175.461C276.469 175.836 276.117 176.289 275.883 176.82C275.664 177.336 275.555 177.922 275.555 178.578C275.555 179.031 275.625 179.469 275.766 179.891C275.906 180.297 276.133 180.664 276.445 180.992C276.758 181.305 277.164 181.555 277.664 181.742C278.164 181.93 278.773 182.023 279.492 182.023C280.43 182.023 281.5 181.742 282.703 181.18C283.922 180.602 285.203 179.695 286.547 178.461V174.289ZM306.281 155.234H299.32V151.883H310.406V181.602H317.414V185H298.547V181.602H306.281V155.234ZM332.672 155.234H325.711V151.883H336.797V181.602H343.805V185H324.938V181.602H332.672V155.234ZM398.602 185H393L382.031 172.391V185H377.953V151.883H382.031V172.227L392.602 161.469H397.992L386.953 172.32L398.602 185ZM411.844 155.234H404.883V151.883H415.969V181.602H422.977V185H404.109V181.602H411.844V155.234ZM445.336 185L445.242 181.836C443.961 183.102 442.656 184.016 441.328 184.578C440.016 185.141 438.633 185.422 437.18 185.422C435.836 185.422 434.688 185.25 433.734 184.906C432.781 184.562 431.992 184.094 431.367 183.5C430.758 182.891 430.305 182.18 430.008 181.367C429.727 180.555 429.586 179.672 429.586 178.719C429.586 176.359 430.461 174.516 432.211 173.188C433.977 171.844 436.578 171.172 440.016 171.172H444.891V169.109C444.891 167.719 444.445 166.609 443.555 165.781C442.664 164.938 441.305 164.516 439.477 164.516C438.148 164.516 436.836 164.664 435.539 164.961C434.258 165.258 432.93 165.68 431.555 166.227V162.547C432.07 162.359 432.641 162.18 433.266 162.008C433.906 161.82 434.578 161.656 435.281 161.516C435.984 161.375 436.719 161.266 437.484 161.188C438.25 161.094 439.023 161.047 439.805 161.047C441.227 161.047 442.508 161.203 443.648 161.516C444.789 161.828 445.75 162.305 446.531 162.945C447.328 163.586 447.938 164.391 448.359 165.359C448.781 166.328 448.992 167.469 448.992 168.781V185H445.336ZM444.891 174.289H439.711C438.695 174.289 437.82 174.391 437.086 174.594C436.352 174.797 435.75 175.086 435.281 175.461C434.812 175.836 434.461 176.289 434.227 176.82C434.008 177.336 433.898 177.922 433.898 178.578C433.898 179.031 433.969 179.469 434.109 179.891C434.25 180.297 434.477 180.664 434.789 180.992C435.102 181.305 435.508 181.555 436.008 181.742C436.508 181.93 437.117 182.023 437.836 182.023C438.773 182.023 439.844 181.742 441.047 181.18C442.266 180.602 443.547 179.695 444.891 178.461V174.289ZM455.414 173.727C455.414 171.727 455.688 169.953 456.234 168.406C456.781 166.844 457.555 165.531 458.555 164.469C459.57 163.391 460.781 162.578 462.188 162.031C463.609 161.469 465.188 161.188 466.922 161.188C467.672 161.188 468.406 161.234 469.125 161.328C469.859 161.422 470.578 161.57 471.281 161.773V151.883H475.383V185H471.727L471.586 180.547C470.445 182.203 469.211 183.43 467.883 184.227C466.555 185.023 465.117 185.422 463.57 185.422C462.227 185.422 461.039 185.141 460.008 184.578C458.992 184.016 458.141 183.227 457.453 182.211C456.781 181.18 456.273 179.945 455.93 178.508C455.586 177.07 455.414 175.477 455.414 173.727ZM459.586 173.469C459.586 176.312 460 178.438 460.828 179.844C461.672 181.234 462.859 181.93 464.391 181.93C465.422 181.93 466.508 181.469 467.648 180.547C468.805 179.625 470.016 178.258 471.281 176.445V165.523C470.609 165.211 469.867 164.977 469.055 164.82C468.242 164.648 467.438 164.562 466.641 164.562C464.422 164.562 462.688 165.281 461.438 166.719C460.203 168.156 459.586 170.406 459.586 173.469ZM491.016 164.844H484.055V161.469H495.141V181.602H502.148V185H483.281V181.602H491.016V164.844ZM492.445 151.602C492.898 151.602 493.32 151.688 493.711 151.859C494.102 152.016 494.438 152.242 494.719 152.539C495.016 152.836 495.242 153.18 495.398 153.57C495.57 153.945 495.656 154.359 495.656 154.812C495.656 155.25 495.57 155.664 495.398 156.055C495.242 156.445 495.016 156.789 494.719 157.086C494.438 157.383 494.102 157.617 493.711 157.789C493.32 157.945 492.898 158.023 492.445 158.023C491.992 158.023 491.57 157.945 491.18 157.789C490.789 157.617 490.445 157.383 490.148 157.086C489.867 156.789 489.641 156.445 489.469 156.055C489.312 155.664 489.234 155.25 489.234 154.812C489.234 154.359 489.312 153.945 489.469 153.57C489.641 153.18 489.867 152.836 490.148 152.539C490.445 152.242 490.789 152.016 491.18 151.859C491.57 151.688 491.992 151.602 492.445 151.602Z" fill="white"/>
<path d="M209.018 115H207.312L206.513 112.495H201.731L200.923 115H199.297L203.111 103.513H205.256L209.018 115ZM206.064 111.098L204.122 104.954L202.18 111.098H206.064ZM210.512 106.176H211.874L211.936 107.6C212.193 107.295 212.442 107.043 212.683 106.844C212.923 106.639 213.157 106.475 213.386 106.352C213.62 106.229 213.857 106.144 214.098 106.097C214.338 106.044 214.587 106.018 214.845 106.018C215.753 106.018 216.438 106.287 216.901 106.826C217.37 107.359 217.604 108.165 217.604 109.243V115H216.075V109.366C216.075 108.675 215.946 108.165 215.688 107.837C215.431 107.503 215.047 107.336 214.537 107.336C214.35 107.336 214.165 107.365 213.983 107.424C213.808 107.477 213.623 107.573 213.43 107.714C213.236 107.849 213.025 108.033 212.797 108.268C212.574 108.502 212.322 108.795 212.041 109.146V115H210.512V106.176ZM237.758 110.122C237.758 110.339 237.755 110.521 237.749 110.667C237.743 110.813 237.734 110.951 237.723 111.08H231.526C231.526 111.982 231.778 112.677 232.282 113.163C232.786 113.644 233.513 113.884 234.462 113.884C234.72 113.884 234.978 113.875 235.235 113.857C235.493 113.834 235.742 113.805 235.982 113.77C236.223 113.734 236.451 113.696 236.668 113.655C236.891 113.608 237.096 113.559 237.283 113.506V114.763C236.867 114.88 236.396 114.974 235.868 115.044C235.347 115.12 234.805 115.158 234.242 115.158C233.486 115.158 232.836 115.056 232.291 114.851C231.746 114.646 231.298 114.35 230.946 113.963C230.601 113.57 230.343 113.093 230.173 112.53C230.009 111.962 229.927 111.32 229.927 110.605C229.927 109.984 230.015 109.398 230.19 108.848C230.372 108.291 230.633 107.805 230.973 107.389C231.318 106.967 231.74 106.633 232.238 106.387C232.736 106.141 233.302 106.018 233.935 106.018C234.55 106.018 235.095 106.114 235.569 106.308C236.044 106.501 236.442 106.776 236.765 107.134C237.093 107.485 237.339 107.916 237.503 108.426C237.673 108.93 237.758 109.495 237.758 110.122ZM236.167 109.902C236.185 109.51 236.146 109.152 236.053 108.83C235.959 108.502 235.812 108.221 235.613 107.986C235.42 107.752 235.177 107.57 234.884 107.441C234.591 107.307 234.251 107.239 233.864 107.239C233.53 107.239 233.226 107.304 232.95 107.433C232.675 107.562 232.438 107.743 232.238 107.978C232.039 108.212 231.878 108.493 231.755 108.821C231.632 109.149 231.556 109.51 231.526 109.902H236.167ZM245.87 115L245.835 113.813C245.354 114.288 244.865 114.631 244.367 114.842C243.875 115.053 243.356 115.158 242.812 115.158C242.308 115.158 241.877 115.094 241.52 114.965C241.162 114.836 240.866 114.66 240.632 114.438C240.403 114.209 240.233 113.942 240.122 113.638C240.017 113.333 239.964 113.002 239.964 112.645C239.964 111.76 240.292 111.068 240.948 110.57C241.61 110.066 242.586 109.814 243.875 109.814H245.703V109.041C245.703 108.52 245.536 108.104 245.202 107.793C244.868 107.477 244.358 107.318 243.673 107.318C243.175 107.318 242.683 107.374 242.196 107.485C241.716 107.597 241.218 107.755 240.702 107.96V106.58C240.896 106.51 241.109 106.442 241.344 106.378C241.584 106.308 241.836 106.246 242.1 106.193C242.363 106.141 242.639 106.1 242.926 106.07C243.213 106.035 243.503 106.018 243.796 106.018C244.329 106.018 244.81 106.076 245.237 106.193C245.665 106.311 246.025 106.489 246.318 106.729C246.617 106.97 246.846 107.271 247.004 107.635C247.162 107.998 247.241 108.426 247.241 108.918V115H245.87ZM245.703 110.983H243.761C243.38 110.983 243.052 111.021 242.776 111.098C242.501 111.174 242.275 111.282 242.1 111.423C241.924 111.563 241.792 111.733 241.704 111.933C241.622 112.126 241.581 112.346 241.581 112.592C241.581 112.762 241.607 112.926 241.66 113.084C241.713 113.236 241.798 113.374 241.915 113.497C242.032 113.614 242.185 113.708 242.372 113.778C242.56 113.849 242.788 113.884 243.058 113.884C243.409 113.884 243.811 113.778 244.262 113.567C244.719 113.351 245.199 113.011 245.703 112.548V110.983ZM257.085 112.592C257.085 112.902 257.032 113.181 256.927 113.427C256.821 113.673 256.678 113.893 256.496 114.086C256.314 114.273 256.104 114.435 255.863 114.569C255.623 114.704 255.365 114.815 255.09 114.903C254.82 114.991 254.542 115.056 254.255 115.097C253.968 115.138 253.687 115.158 253.411 115.158C252.813 115.158 252.263 115.132 251.759 115.079C251.261 115.026 250.771 114.941 250.291 114.824V113.418C250.807 113.564 251.319 113.676 251.829 113.752C252.339 113.828 252.846 113.866 253.35 113.866C254.082 113.866 254.624 113.767 254.976 113.567C255.327 113.368 255.503 113.084 255.503 112.715C255.503 112.557 255.474 112.416 255.415 112.293C255.362 112.164 255.263 112.044 255.116 111.933C254.97 111.815 254.741 111.695 254.431 111.572C254.126 111.449 253.707 111.309 253.174 111.15C252.775 111.033 252.406 110.901 252.066 110.755C251.732 110.603 251.442 110.424 251.196 110.219C250.95 110.014 250.757 109.773 250.616 109.498C250.476 109.223 250.405 108.897 250.405 108.522C250.405 108.276 250.461 108.007 250.572 107.714C250.689 107.421 250.886 107.148 251.161 106.896C251.437 106.645 251.809 106.437 252.277 106.272C252.746 106.103 253.332 106.018 254.035 106.018C254.381 106.018 254.765 106.038 255.187 106.079C255.608 106.114 256.048 106.179 256.505 106.272V107.635C256.024 107.518 255.567 107.433 255.134 107.38C254.706 107.321 254.334 107.292 254.018 107.292C253.637 107.292 253.314 107.321 253.051 107.38C252.793 107.438 252.582 107.521 252.418 107.626C252.26 107.726 252.146 107.846 252.075 107.986C252.005 108.121 251.97 108.268 251.97 108.426C251.97 108.584 251.999 108.728 252.058 108.856C252.122 108.985 252.236 109.111 252.4 109.234C252.57 109.352 252.805 109.472 253.104 109.595C253.402 109.712 253.792 109.841 254.272 109.981C254.794 110.134 255.233 110.295 255.591 110.465C255.948 110.629 256.238 110.813 256.461 111.019C256.684 111.224 256.842 111.455 256.936 111.713C257.035 111.971 257.085 112.264 257.085 112.592ZM267.843 106.176L264.837 114.068C264.526 114.871 264.204 115.562 263.87 116.143C263.542 116.723 263.182 117.197 262.789 117.566C262.396 117.941 261.966 118.217 261.497 118.393C261.028 118.568 260.504 118.656 259.924 118.656C259.771 118.656 259.634 118.653 259.511 118.647C259.388 118.642 259.253 118.633 259.106 118.621V117.232C259.235 117.25 259.376 117.265 259.528 117.276C259.681 117.294 259.842 117.303 260.012 117.303C260.293 117.303 260.554 117.262 260.794 117.18C261.04 117.098 261.271 116.963 261.488 116.775C261.705 116.594 261.913 116.356 262.112 116.063C262.312 115.771 262.505 115.416 262.692 115L259.168 106.176H260.908L263.141 112.012L263.589 113.383L264.099 111.977L266.164 106.176H267.843ZM286.897 114.877C286.552 114.965 286.194 115.026 285.825 115.062C285.456 115.103 285.081 115.123 284.7 115.123C283.593 115.123 282.767 114.874 282.222 114.376C281.677 113.872 281.404 113.102 281.404 112.064V107.459H278.935V106.176H281.404V103.75L282.934 103.354V106.176H286.897V107.459H282.934V111.941C282.934 112.574 283.101 113.049 283.435 113.365C283.774 113.676 284.272 113.831 284.929 113.831C285.21 113.831 285.518 113.811 285.852 113.77C286.186 113.723 286.534 113.652 286.897 113.559V114.877ZM297.365 110.518C297.365 111.203 297.269 111.833 297.075 112.407C296.882 112.976 296.604 113.465 296.24 113.875C295.877 114.279 295.435 114.596 294.913 114.824C294.392 115.047 293.8 115.158 293.138 115.158C292.505 115.158 291.937 115.062 291.433 114.868C290.935 114.669 290.51 114.379 290.158 113.998C289.812 113.617 289.546 113.146 289.358 112.583C289.177 112.021 289.086 111.373 289.086 110.641C289.086 109.955 289.183 109.331 289.376 108.769C289.569 108.2 289.848 107.714 290.211 107.31C290.574 106.899 291.017 106.583 291.538 106.36C292.06 106.132 292.651 106.018 293.313 106.018C293.946 106.018 294.512 106.117 295.01 106.316C295.514 106.51 295.938 106.797 296.284 107.178C296.636 107.553 296.902 108.021 297.084 108.584C297.271 109.146 297.365 109.791 297.365 110.518ZM295.801 110.588C295.801 110.043 295.739 109.568 295.616 109.164C295.499 108.754 295.329 108.414 295.106 108.145C294.884 107.869 294.611 107.664 294.289 107.529C293.973 107.389 293.618 107.318 293.226 107.318C292.769 107.318 292.376 107.409 292.048 107.591C291.726 107.767 291.459 108.004 291.248 108.303C291.043 108.602 290.891 108.95 290.791 109.349C290.697 109.741 290.65 110.154 290.65 110.588C290.65 111.133 290.709 111.61 290.826 112.021C290.949 112.431 291.122 112.773 291.345 113.049C291.567 113.318 291.837 113.523 292.153 113.664C292.47 113.799 292.827 113.866 293.226 113.866C293.683 113.866 294.072 113.778 294.395 113.603C294.723 113.421 294.989 113.181 295.194 112.882C295.405 112.583 295.558 112.237 295.651 111.845C295.751 111.446 295.801 111.027 295.801 110.588ZM316.569 115H315.198L315.146 113.576C314.882 113.881 314.63 114.136 314.39 114.341C314.155 114.54 313.921 114.701 313.687 114.824C313.452 114.947 313.215 115.032 312.975 115.079C312.74 115.132 312.491 115.158 312.228 115.158C311.319 115.158 310.634 114.892 310.171 114.358C309.708 113.825 309.477 113.02 309.477 111.941V106.176H311.006V111.818C311.006 113.172 311.516 113.849 312.535 113.849C312.723 113.849 312.904 113.822 313.08 113.77C313.262 113.711 313.449 113.614 313.643 113.479C313.842 113.339 314.053 113.151 314.275 112.917C314.504 112.683 314.759 112.387 315.04 112.029V106.176H316.569V115ZM326.36 112.592C326.36 112.902 326.308 113.181 326.202 113.427C326.097 113.673 325.953 113.893 325.771 114.086C325.59 114.273 325.379 114.435 325.139 114.569C324.898 114.704 324.641 114.815 324.365 114.903C324.096 114.991 323.817 115.056 323.53 115.097C323.243 115.138 322.962 115.158 322.687 115.158C322.089 115.158 321.538 115.132 321.034 115.079C320.536 115.026 320.047 114.941 319.566 114.824V113.418C320.082 113.564 320.595 113.676 321.104 113.752C321.614 113.828 322.121 113.866 322.625 113.866C323.357 113.866 323.899 113.767 324.251 113.567C324.603 113.368 324.778 113.084 324.778 112.715C324.778 112.557 324.749 112.416 324.69 112.293C324.638 112.164 324.538 112.044 324.392 111.933C324.245 111.815 324.017 111.695 323.706 111.572C323.401 111.449 322.982 111.309 322.449 111.15C322.051 111.033 321.682 110.901 321.342 110.755C321.008 110.603 320.718 110.424 320.472 110.219C320.226 110.014 320.032 109.773 319.892 109.498C319.751 109.223 319.681 108.897 319.681 108.522C319.681 108.276 319.736 108.007 319.848 107.714C319.965 107.421 320.161 107.148 320.437 106.896C320.712 106.645 321.084 106.437 321.553 106.272C322.021 106.103 322.607 106.018 323.311 106.018C323.656 106.018 324.04 106.038 324.462 106.079C324.884 106.114 325.323 106.179 325.78 106.272V107.635C325.3 107.518 324.843 107.433 324.409 107.38C323.981 107.321 323.609 107.292 323.293 107.292C322.912 107.292 322.59 107.321 322.326 107.38C322.068 107.438 321.857 107.521 321.693 107.626C321.535 107.726 321.421 107.846 321.351 107.986C321.28 108.121 321.245 108.268 321.245 108.426C321.245 108.584 321.274 108.728 321.333 108.856C321.397 108.985 321.512 109.111 321.676 109.234C321.846 109.352 322.08 109.472 322.379 109.595C322.678 109.712 323.067 109.841 323.548 109.981C324.069 110.134 324.509 110.295 324.866 110.465C325.224 110.629 325.514 110.813 325.736 111.019C325.959 111.224 326.117 111.455 326.211 111.713C326.311 111.971 326.36 112.264 326.36 112.592ZM336.723 110.122C336.723 110.339 336.72 110.521 336.714 110.667C336.708 110.813 336.699 110.951 336.688 111.08H330.491C330.491 111.982 330.743 112.677 331.247 113.163C331.751 113.644 332.478 113.884 333.427 113.884C333.685 113.884 333.942 113.875 334.2 113.857C334.458 113.834 334.707 113.805 334.947 113.77C335.188 113.734 335.416 113.696 335.633 113.655C335.855 113.608 336.061 113.559 336.248 113.506V114.763C335.832 114.88 335.36 114.974 334.833 115.044C334.312 115.12 333.77 115.158 333.207 115.158C332.451 115.158 331.801 115.056 331.256 114.851C330.711 114.646 330.263 114.35 329.911 113.963C329.565 113.57 329.308 113.093 329.138 112.53C328.974 111.962 328.892 111.32 328.892 110.605C328.892 109.984 328.979 109.398 329.155 108.848C329.337 108.291 329.598 107.805 329.938 107.389C330.283 106.967 330.705 106.633 331.203 106.387C331.701 106.141 332.267 106.018 332.899 106.018C333.515 106.018 334.06 106.114 334.534 106.308C335.009 106.501 335.407 106.776 335.729 107.134C336.058 107.485 336.304 107.916 336.468 108.426C336.638 108.93 336.723 109.495 336.723 110.122ZM335.132 109.902C335.149 109.51 335.111 109.152 335.018 108.83C334.924 108.502 334.777 108.221 334.578 107.986C334.385 107.752 334.142 107.57 333.849 107.441C333.556 107.307 333.216 107.239 332.829 107.239C332.495 107.239 332.19 107.304 331.915 107.433C331.64 107.562 331.402 107.743 331.203 107.978C331.004 108.212 330.843 108.493 330.72 108.821C330.597 109.149 330.521 109.51 330.491 109.902H335.132ZM356.05 112.592C356.05 112.902 355.997 113.181 355.892 113.427C355.786 113.673 355.643 113.893 355.461 114.086C355.279 114.273 355.068 114.435 354.828 114.569C354.588 114.704 354.33 114.815 354.055 114.903C353.785 114.991 353.507 115.056 353.22 115.097C352.933 115.138 352.651 115.158 352.376 115.158C351.778 115.158 351.228 115.132 350.724 115.079C350.226 115.026 349.736 114.941 349.256 114.824V113.418C349.771 113.564 350.284 113.676 350.794 113.752C351.304 113.828 351.811 113.866 352.314 113.866C353.047 113.866 353.589 113.767 353.94 113.567C354.292 113.368 354.468 113.084 354.468 112.715C354.468 112.557 354.438 112.416 354.38 112.293C354.327 112.164 354.228 112.044 354.081 111.933C353.935 111.815 353.706 111.695 353.396 111.572C353.091 111.449 352.672 111.309 352.139 111.15C351.74 111.033 351.371 110.901 351.031 110.755C350.697 110.603 350.407 110.424 350.161 110.219C349.915 110.014 349.722 109.773 349.581 109.498C349.44 109.223 349.37 108.897 349.37 108.522C349.37 108.276 349.426 108.007 349.537 107.714C349.654 107.421 349.851 107.148 350.126 106.896C350.401 106.645 350.773 106.437 351.242 106.272C351.711 106.103 352.297 106.018 353 106.018C353.346 106.018 353.729 106.038 354.151 106.079C354.573 106.114 355.013 106.179 355.47 106.272V107.635C354.989 107.518 354.532 107.433 354.099 107.38C353.671 107.321 353.299 107.292 352.982 107.292C352.602 107.292 352.279 107.321 352.016 107.38C351.758 107.438 351.547 107.521 351.383 107.626C351.225 107.726 351.11 107.846 351.04 107.986C350.97 108.121 350.935 108.268 350.935 108.426C350.935 108.584 350.964 108.728 351.022 108.856C351.087 108.985 351.201 109.111 351.365 109.234C351.535 109.352 351.77 109.472 352.068 109.595C352.367 109.712 352.757 109.841 353.237 109.981C353.759 110.134 354.198 110.295 354.556 110.465C354.913 110.629 355.203 110.813 355.426 111.019C355.648 111.224 355.807 111.455 355.9 111.713C356 111.971 356.05 112.264 356.05 112.592ZM366.069 114.877C365.724 114.965 365.366 115.026 364.997 115.062C364.628 115.103 364.253 115.123 363.872 115.123C362.765 115.123 361.938 114.874 361.394 114.376C360.849 113.872 360.576 113.102 360.576 112.064V107.459H358.106V106.176H360.576V103.75L362.105 103.354V106.176H366.069V107.459H362.105V111.941C362.105 112.574 362.272 113.049 362.606 113.365C362.946 113.676 363.444 113.831 364.101 113.831C364.382 113.831 364.689 113.811 365.023 113.77C365.357 113.723 365.706 113.652 366.069 113.559V114.877ZM374.524 115L374.489 113.813C374.009 114.288 373.52 114.631 373.021 114.842C372.529 115.053 372.011 115.158 371.466 115.158C370.962 115.158 370.531 115.094 370.174 114.965C369.816 114.836 369.521 114.66 369.286 114.438C369.058 114.209 368.888 113.942 368.776 113.638C368.671 113.333 368.618 113.002 368.618 112.645C368.618 111.76 368.946 111.068 369.603 110.57C370.265 110.066 371.24 109.814 372.529 109.814H374.357V109.041C374.357 108.52 374.19 108.104 373.856 107.793C373.522 107.477 373.013 107.318 372.327 107.318C371.829 107.318 371.337 107.374 370.851 107.485C370.37 107.597 369.872 107.755 369.356 107.96V106.58C369.55 106.51 369.764 106.442 369.998 106.378C370.238 106.308 370.49 106.246 370.754 106.193C371.018 106.141 371.293 106.1 371.58 106.07C371.867 106.035 372.157 106.018 372.45 106.018C372.983 106.018 373.464 106.076 373.892 106.193C374.319 106.311 374.68 106.489 374.973 106.729C375.271 106.97 375.5 107.271 375.658 107.635C375.816 107.998 375.896 108.426 375.896 108.918V115H374.524ZM374.357 110.983H372.415C372.034 110.983 371.706 111.021 371.431 111.098C371.155 111.174 370.93 111.282 370.754 111.423C370.578 111.563 370.446 111.733 370.358 111.933C370.276 112.126 370.235 112.346 370.235 112.592C370.235 112.762 370.262 112.926 370.314 113.084C370.367 113.236 370.452 113.374 370.569 113.497C370.687 113.614 370.839 113.708 371.026 113.778C371.214 113.849 371.442 113.884 371.712 113.884C372.063 113.884 372.465 113.778 372.916 113.567C373.373 113.351 373.854 113.011 374.357 112.548V110.983ZM385.862 114.877C385.517 114.965 385.159 115.026 384.79 115.062C384.421 115.103 384.046 115.123 383.665 115.123C382.558 115.123 381.731 114.874 381.187 114.376C380.642 113.872 380.369 113.102 380.369 112.064V107.459H377.899V106.176H380.369V103.75L381.898 103.354V106.176H385.862V107.459H381.898V111.941C381.898 112.574 382.065 113.049 382.399 113.365C382.739 113.676 383.237 113.831 383.894 113.831C384.175 113.831 384.482 113.811 384.816 113.77C385.15 113.723 385.499 113.652 385.862 113.559V114.877ZM396.102 110.122C396.102 110.339 396.099 110.521 396.093 110.667C396.087 110.813 396.078 110.951 396.066 111.08H389.87C389.87 111.982 390.122 112.677 390.626 113.163C391.13 113.644 391.856 113.884 392.806 113.884C393.063 113.884 393.321 113.875 393.579 113.857C393.837 113.834 394.086 113.805 394.326 113.77C394.566 113.734 394.795 113.696 395.012 113.655C395.234 113.608 395.439 113.559 395.627 113.506V114.763C395.211 114.88 394.739 114.974 394.212 115.044C393.69 115.12 393.148 115.158 392.586 115.158C391.83 115.158 391.18 115.056 390.635 114.851C390.09 114.646 389.642 114.35 389.29 113.963C388.944 113.57 388.687 113.093 388.517 112.53C388.353 111.962 388.271 111.32 388.271 110.605C388.271 109.984 388.358 109.398 388.534 108.848C388.716 108.291 388.977 107.805 389.316 107.389C389.662 106.967 390.084 106.633 390.582 106.387C391.08 106.141 391.646 106.018 392.278 106.018C392.894 106.018 393.438 106.114 393.913 106.308C394.388 106.501 394.786 106.776 395.108 107.134C395.437 107.485 395.683 107.916 395.847 108.426C396.017 108.93 396.102 109.495 396.102 110.122ZM394.511 109.902C394.528 109.51 394.49 109.152 394.396 108.83C394.303 108.502 394.156 108.221 393.957 107.986C393.764 107.752 393.521 107.57 393.228 107.441C392.935 107.307 392.595 107.239 392.208 107.239C391.874 107.239 391.569 107.304 391.294 107.433C391.019 107.562 390.781 107.743 390.582 107.978C390.383 108.212 390.222 108.493 390.099 108.821C389.976 109.149 389.899 109.51 389.87 109.902H394.511ZM414.734 115V108.663C414.734 108.388 414.723 108.162 414.699 107.986C414.682 107.811 414.649 107.673 414.603 107.573C414.562 107.468 414.506 107.395 414.436 107.354C414.371 107.312 414.289 107.292 414.189 107.292C414.072 107.292 413.964 107.327 413.864 107.397C413.765 107.468 413.656 107.582 413.539 107.74C413.428 107.898 413.302 108.109 413.161 108.373C413.026 108.631 412.865 108.95 412.678 109.331V115H411.28V108.83C411.28 108.508 411.269 108.247 411.245 108.048C411.228 107.849 411.195 107.693 411.148 107.582C411.107 107.471 411.052 107.395 410.981 107.354C410.911 107.312 410.826 107.292 410.727 107.292C410.621 107.292 410.521 107.321 410.428 107.38C410.334 107.438 410.229 107.544 410.111 107.696C410 107.849 409.874 108.057 409.733 108.32C409.593 108.584 409.426 108.921 409.232 109.331V115H407.826V106.176H408.995L409.065 107.854C409.218 107.521 409.364 107.236 409.505 107.002C409.651 106.768 409.801 106.58 409.953 106.439C410.105 106.293 410.267 106.188 410.437 106.123C410.612 106.053 410.806 106.018 411.017 106.018C411.491 106.018 411.852 106.173 412.098 106.483C412.344 106.794 412.467 107.274 412.467 107.925C412.607 107.62 412.745 107.351 412.88 107.116C413.015 106.876 413.158 106.677 413.311 106.519C413.469 106.354 413.642 106.231 413.829 106.149C414.017 106.062 414.233 106.018 414.479 106.018C415.587 106.018 416.141 106.87 416.141 108.575V115H414.734ZM424.007 115L423.972 113.813C423.491 114.288 423.002 114.631 422.504 114.842C422.012 115.053 421.493 115.158 420.948 115.158C420.444 115.158 420.014 115.094 419.656 114.965C419.299 114.836 419.003 114.66 418.769 114.438C418.54 114.209 418.37 113.942 418.259 113.638C418.153 113.333 418.101 113.002 418.101 112.645C418.101 111.76 418.429 111.068 419.085 110.57C419.747 110.066 420.723 109.814 422.012 109.814H423.84V109.041C423.84 108.52 423.673 108.104 423.339 107.793C423.005 107.477 422.495 107.318 421.81 107.318C421.312 107.318 420.819 107.374 420.333 107.485C419.853 107.597 419.354 107.755 418.839 107.96V106.58C419.032 106.51 419.246 106.442 419.48 106.378C419.721 106.308 419.973 106.246 420.236 106.193C420.5 106.141 420.775 106.1 421.062 106.07C421.35 106.035 421.64 106.018 421.933 106.018C422.466 106.018 422.946 106.076 423.374 106.193C423.802 106.311 424.162 106.489 424.455 106.729C424.754 106.97 424.982 107.271 425.141 107.635C425.299 107.998 425.378 108.426 425.378 108.918V115H424.007ZM423.84 110.983H421.897C421.517 110.983 421.188 111.021 420.913 111.098C420.638 111.174 420.412 111.282 420.236 111.423C420.061 111.563 419.929 111.733 419.841 111.933C419.759 112.126 419.718 112.346 419.718 112.592C419.718 112.762 419.744 112.926 419.797 113.084C419.85 113.236 419.935 113.374 420.052 113.497C420.169 113.614 420.321 113.708 420.509 113.778C420.696 113.849 420.925 113.884 421.194 113.884C421.546 113.884 421.947 113.778 422.398 113.567C422.855 113.351 423.336 113.011 423.84 112.548V110.983ZM428.234 106.176H429.597L429.658 107.6C429.916 107.295 430.165 107.043 430.405 106.844C430.646 106.639 430.88 106.475 431.108 106.352C431.343 106.229 431.58 106.144 431.82 106.097C432.061 106.044 432.31 106.018 432.567 106.018C433.476 106.018 434.161 106.287 434.624 106.826C435.093 107.359 435.327 108.165 435.327 109.243V115H433.798V109.366C433.798 108.675 433.669 108.165 433.411 107.837C433.153 107.503 432.77 107.336 432.26 107.336C432.072 107.336 431.888 107.365 431.706 107.424C431.53 107.477 431.346 107.573 431.152 107.714C430.959 107.849 430.748 108.033 430.52 108.268C430.297 108.502 430.045 108.795 429.764 109.146V115H428.234V106.176ZM443.8 115L443.765 113.813C443.284 114.288 442.795 114.631 442.297 114.842C441.805 115.053 441.286 115.158 440.741 115.158C440.237 115.158 439.807 115.094 439.449 114.965C439.092 114.836 438.796 114.66 438.562 114.438C438.333 114.209 438.163 113.942 438.052 113.638C437.946 113.333 437.894 113.002 437.894 112.645C437.894 111.76 438.222 111.068 438.878 110.57C439.54 110.066 440.516 109.814 441.805 109.814H443.633V109.041C443.633 108.52 443.466 108.104 443.132 107.793C442.798 107.477 442.288 107.318 441.603 107.318C441.104 107.318 440.612 107.374 440.126 107.485C439.646 107.597 439.147 107.755 438.632 107.96V106.58C438.825 106.51 439.039 106.442 439.273 106.378C439.514 106.308 439.766 106.246 440.029 106.193C440.293 106.141 440.568 106.1 440.855 106.07C441.143 106.035 441.433 106.018 441.726 106.018C442.259 106.018 442.739 106.076 443.167 106.193C443.595 106.311 443.955 106.489 444.248 106.729C444.547 106.97 444.775 107.271 444.934 107.635C445.092 107.998 445.171 108.426 445.171 108.918V115H443.8ZM443.633 110.983H441.69C441.31 110.983 440.981 111.021 440.706 111.098C440.431 111.174 440.205 111.282 440.029 111.423C439.854 111.563 439.722 111.733 439.634 111.933C439.552 112.126 439.511 112.346 439.511 112.592C439.511 112.762 439.537 112.926 439.59 113.084C439.643 113.236 439.728 113.374 439.845 113.497C439.962 113.614 440.114 113.708 440.302 113.778C440.489 113.849 440.718 113.884 440.987 113.884C441.339 113.884 441.74 113.778 442.191 113.567C442.648 113.351 443.129 113.011 443.633 112.548V110.983ZM454.382 107.424C454.546 107.629 454.672 107.869 454.76 108.145C454.854 108.414 454.9 108.707 454.9 109.023C454.9 109.48 454.815 109.899 454.646 110.28C454.481 110.655 454.247 110.978 453.942 111.247C453.638 111.517 453.271 111.728 452.844 111.88C452.422 112.026 451.956 112.1 451.446 112.1C451.077 112.1 450.731 112.062 450.409 111.985C450.087 111.903 449.832 111.804 449.645 111.687C449.533 111.851 449.439 112.006 449.363 112.152C449.287 112.299 449.249 112.463 449.249 112.645C449.249 112.867 449.354 113.052 449.565 113.198C449.782 113.345 450.066 113.424 450.418 113.436L452.738 113.523C453.178 113.535 453.582 113.591 453.951 113.69C454.326 113.79 454.646 113.934 454.909 114.121C455.179 114.309 455.387 114.54 455.533 114.815C455.686 115.091 455.762 115.41 455.762 115.773C455.762 116.166 455.677 116.538 455.507 116.89C455.337 117.241 455.073 117.549 454.716 117.812C454.364 118.082 453.916 118.296 453.371 118.454C452.826 118.612 452.179 118.691 451.429 118.691C450.714 118.691 450.104 118.633 449.601 118.516C449.103 118.404 448.692 118.246 448.37 118.041C448.048 117.842 447.813 117.602 447.667 117.32C447.521 117.045 447.447 116.74 447.447 116.406C447.447 115.979 447.547 115.604 447.746 115.281C447.945 114.959 448.253 114.648 448.669 114.35C448.517 114.279 448.385 114.191 448.273 114.086C448.162 113.98 448.071 113.866 448.001 113.743C447.931 113.614 447.878 113.479 447.843 113.339C447.808 113.198 447.79 113.061 447.79 112.926C447.79 112.545 447.878 112.196 448.054 111.88C448.235 111.563 448.449 111.265 448.695 110.983C448.584 110.849 448.484 110.717 448.396 110.588C448.314 110.459 448.241 110.321 448.177 110.175C448.118 110.022 448.071 109.861 448.036 109.691C448.007 109.516 447.992 109.316 447.992 109.094C447.992 108.637 448.074 108.221 448.238 107.846C448.408 107.465 448.643 107.14 448.941 106.87C449.246 106.601 449.609 106.393 450.031 106.246C450.459 106.094 450.931 106.018 451.446 106.018C451.663 106.018 451.871 106.032 452.07 106.062C452.27 106.091 452.445 106.129 452.598 106.176H455.797V107.424H454.382ZM449.073 116.274C449.073 116.69 449.29 116.992 449.724 117.18C450.157 117.373 450.761 117.47 451.534 117.47C452.021 117.47 452.428 117.426 452.756 117.338C453.09 117.25 453.356 117.133 453.556 116.986C453.761 116.846 453.907 116.682 453.995 116.494C454.083 116.312 454.127 116.125 454.127 115.932C454.127 115.574 453.98 115.311 453.688 115.141C453.395 114.971 452.946 114.871 452.343 114.842L450.04 114.763C449.847 114.892 449.686 115.018 449.557 115.141C449.434 115.264 449.337 115.387 449.267 115.51C449.196 115.639 449.146 115.765 449.117 115.888C449.088 116.017 449.073 116.146 449.073 116.274ZM449.539 109.059C449.539 109.34 449.586 109.598 449.68 109.832C449.773 110.066 449.905 110.266 450.075 110.43C450.245 110.594 450.444 110.723 450.673 110.816C450.907 110.904 451.165 110.948 451.446 110.948C451.751 110.948 452.021 110.898 452.255 110.799C452.495 110.693 452.694 110.553 452.853 110.377C453.017 110.201 453.14 109.999 453.222 109.771C453.31 109.542 453.354 109.305 453.354 109.059C453.354 108.777 453.307 108.52 453.213 108.285C453.119 108.051 452.987 107.852 452.817 107.688C452.647 107.523 452.445 107.397 452.211 107.31C451.982 107.216 451.728 107.169 451.446 107.169C451.142 107.169 450.869 107.222 450.629 107.327C450.395 107.433 450.195 107.573 450.031 107.749C449.873 107.919 449.75 108.118 449.662 108.347C449.58 108.575 449.539 108.812 449.539 109.059ZM465.377 110.122C465.377 110.339 465.374 110.521 465.368 110.667C465.362 110.813 465.354 110.951 465.342 111.08H459.146C459.146 111.982 459.397 112.677 459.901 113.163C460.405 113.644 461.132 113.884 462.081 113.884C462.339 113.884 462.597 113.875 462.854 113.857C463.112 113.834 463.361 113.805 463.602 113.77C463.842 113.734 464.07 113.696 464.287 113.655C464.51 113.608 464.715 113.559 464.902 113.506V114.763C464.486 114.88 464.015 114.974 463.487 115.044C462.966 115.12 462.424 115.158 461.861 115.158C461.105 115.158 460.455 115.056 459.91 114.851C459.365 114.646 458.917 114.35 458.565 113.963C458.22 113.57 457.962 113.093 457.792 112.53C457.628 111.962 457.546 111.32 457.546 110.605C457.546 109.984 457.634 109.398 457.81 108.848C457.991 108.291 458.252 107.805 458.592 107.389C458.938 106.967 459.359 106.633 459.857 106.387C460.355 106.141 460.921 106.018 461.554 106.018C462.169 106.018 462.714 106.114 463.188 106.308C463.663 106.501 464.062 106.776 464.384 107.134C464.712 107.485 464.958 107.916 465.122 108.426C465.292 108.93 465.377 109.495 465.377 110.122ZM463.786 109.902C463.804 109.51 463.766 109.152 463.672 108.83C463.578 108.502 463.432 108.221 463.232 107.986C463.039 107.752 462.796 107.57 462.503 107.441C462.21 107.307 461.87 107.239 461.483 107.239C461.149 107.239 460.845 107.304 460.569 107.433C460.294 107.562 460.057 107.743 459.857 107.978C459.658 108.212 459.497 108.493 459.374 108.821C459.251 109.149 459.175 109.51 459.146 109.902H463.786ZM474.113 115V108.663C474.113 108.388 474.102 108.162 474.078 107.986C474.061 107.811 474.028 107.673 473.981 107.573C473.94 107.468 473.885 107.395 473.814 107.354C473.75 107.312 473.668 107.292 473.568 107.292C473.451 107.292 473.343 107.327 473.243 107.397C473.144 107.468 473.035 107.582 472.918 107.74C472.807 107.898 472.681 108.109 472.54 108.373C472.405 108.631 472.244 108.95 472.057 109.331V115H470.659V108.83C470.659 108.508 470.647 108.247 470.624 108.048C470.606 107.849 470.574 107.693 470.527 107.582C470.486 107.471 470.431 107.395 470.36 107.354C470.29 107.312 470.205 107.292 470.105 107.292C470 107.292 469.9 107.321 469.807 107.38C469.713 107.438 469.607 107.544 469.49 107.696C469.379 107.849 469.253 108.057 469.112 108.32C468.972 108.584 468.805 108.921 468.611 109.331V115H467.205V106.176H468.374L468.444 107.854C468.597 107.521 468.743 107.236 468.884 107.002C469.03 106.768 469.18 106.58 469.332 106.439C469.484 106.293 469.646 106.188 469.815 106.123C469.991 106.053 470.185 106.018 470.396 106.018C470.87 106.018 471.23 106.173 471.477 106.483C471.723 106.794 471.846 107.274 471.846 107.925C471.986 107.62 472.124 107.351 472.259 107.116C472.394 106.876 472.537 106.677 472.689 106.519C472.848 106.354 473.021 106.231 473.208 106.149C473.396 106.062 473.612 106.018 473.858 106.018C474.966 106.018 475.52 106.87 475.52 108.575V115H474.113ZM485.17 110.122C485.17 110.339 485.167 110.521 485.161 110.667C485.155 110.813 485.146 110.951 485.135 111.08H478.938C478.938 111.982 479.19 112.677 479.694 113.163C480.198 113.644 480.925 113.884 481.874 113.884C482.132 113.884 482.39 113.875 482.647 113.857C482.905 113.834 483.154 113.805 483.395 113.77C483.635 113.734 483.863 113.696 484.08 113.655C484.303 113.608 484.508 113.559 484.695 113.506V114.763C484.279 114.88 483.808 114.974 483.28 115.044C482.759 115.12 482.217 115.158 481.654 115.158C480.898 115.158 480.248 115.056 479.703 114.851C479.158 114.646 478.71 114.35 478.358 113.963C478.013 113.57 477.755 113.093 477.585 112.53C477.421 111.962 477.339 111.32 477.339 110.605C477.339 109.984 477.427 109.398 477.603 108.848C477.784 108.291 478.045 107.805 478.385 107.389C478.73 106.967 479.152 106.633 479.65 106.387C480.148 106.141 480.714 106.018 481.347 106.018C481.962 106.018 482.507 106.114 482.981 106.308C483.456 106.501 483.854 106.776 484.177 107.134C484.505 107.485 484.751 107.916 484.915 108.426C485.085 108.93 485.17 109.495 485.17 110.122ZM483.579 109.902C483.597 109.51 483.559 109.152 483.465 108.83C483.371 108.502 483.225 108.221 483.025 107.986C482.832 107.752 482.589 107.57 482.296 107.441C482.003 107.307 481.663 107.239 481.276 107.239C480.942 107.239 480.638 107.304 480.362 107.433C480.087 107.562 479.85 107.743 479.65 107.978C479.451 108.212 479.29 108.493 479.167 108.821C479.044 109.149 478.968 109.51 478.938 109.902H483.579ZM487.613 106.176H488.976L489.037 107.6C489.295 107.295 489.544 107.043 489.784 106.844C490.024 106.639 490.259 106.475 490.487 106.352C490.722 106.229 490.959 106.144 491.199 106.097C491.439 106.044 491.688 106.018 491.946 106.018C492.854 106.018 493.54 106.287 494.003 106.826C494.472 107.359 494.706 108.165 494.706 109.243V115H493.177V109.366C493.177 108.675 493.048 108.165 492.79 107.837C492.532 107.503 492.148 107.336 491.639 107.336C491.451 107.336 491.267 107.365 491.085 107.424C490.909 107.477 490.725 107.573 490.531 107.714C490.338 107.849 490.127 108.033 489.898 108.268C489.676 108.502 489.424 108.795 489.143 109.146V115H487.613V106.176ZM504.62 114.877C504.274 114.965 503.917 115.026 503.548 115.062C503.179 115.103 502.804 115.123 502.423 115.123C501.315 115.123 500.489 114.874 499.944 114.376C499.399 113.872 499.127 113.102 499.127 112.064V107.459H496.657V106.176H499.127V103.75L500.656 103.354V106.176H504.62V107.459H500.656V111.941C500.656 112.574 500.823 113.049 501.157 113.365C501.497 113.676 501.995 113.831 502.651 113.831C502.933 113.831 503.24 113.811 503.574 113.77C503.908 113.723 504.257 113.652 504.62 113.559V114.877ZM342.172 124.838H339.562V123.581H343.719V134.726H346.347V136H339.271V134.726H342.172V124.838ZM352.068 128.441H349.458V127.176H353.615V134.726H356.243V136H349.168V134.726H352.068V128.441ZM352.604 123.476C352.774 123.476 352.933 123.508 353.079 123.572C353.226 123.631 353.352 123.716 353.457 123.827C353.568 123.938 353.653 124.067 353.712 124.214C353.776 124.354 353.809 124.51 353.809 124.68C353.809 124.844 353.776 124.999 353.712 125.146C353.653 125.292 353.568 125.421 353.457 125.532C353.352 125.644 353.226 125.731 353.079 125.796C352.933 125.854 352.774 125.884 352.604 125.884C352.435 125.884 352.276 125.854 352.13 125.796C351.983 125.731 351.854 125.644 351.743 125.532C351.638 125.421 351.553 125.292 351.488 125.146C351.43 124.999 351.4 124.844 351.4 124.68C351.4 124.51 351.43 124.354 351.488 124.214C351.553 124.067 351.638 123.938 351.743 123.827C351.854 123.716 351.983 123.631 352.13 123.572C352.276 123.508 352.435 123.476 352.604 123.476ZM366.5 131.43C366.5 132.162 366.397 132.818 366.192 133.398C365.993 133.973 365.706 134.462 365.331 134.866C364.962 135.265 364.511 135.572 363.978 135.789C363.444 136 362.844 136.105 362.176 136.105C361.654 136.105 361.121 136.056 360.576 135.956C360.031 135.856 359.492 135.698 358.959 135.481V123.581H360.488V127L360.418 128.635C360.857 128.043 361.326 127.627 361.824 127.387C362.328 127.141 362.867 127.018 363.441 127.018C363.945 127.018 364.388 127.123 364.769 127.334C365.149 127.545 365.469 127.844 365.727 128.23C365.984 128.611 366.178 129.074 366.307 129.619C366.436 130.158 366.5 130.762 366.5 131.43ZM364.936 131.5C364.936 131.037 364.9 130.612 364.83 130.226C364.766 129.839 364.66 129.508 364.514 129.232C364.367 128.957 364.18 128.743 363.951 128.591C363.723 128.433 363.45 128.354 363.134 128.354C362.94 128.354 362.744 128.386 362.545 128.45C362.346 128.509 362.138 128.611 361.921 128.758C361.71 128.898 361.484 129.089 361.244 129.329C361.01 129.563 360.758 129.856 360.488 130.208V134.488C360.787 134.605 361.092 134.699 361.402 134.77C361.713 134.834 362.009 134.866 362.29 134.866C362.642 134.866 362.976 134.811 363.292 134.699C363.614 134.588 363.896 134.403 364.136 134.146C364.382 133.882 364.575 133.536 364.716 133.108C364.862 132.675 364.936 132.139 364.936 131.5ZM369.216 127.176H370.613L370.657 128.802C371.179 128.175 371.691 127.721 372.195 127.439C372.705 127.158 373.218 127.018 373.733 127.018C374.647 127.018 375.339 127.313 375.808 127.905C376.282 128.497 376.502 129.376 376.467 130.542H374.92C374.938 129.769 374.823 129.209 374.577 128.863C374.337 128.512 373.982 128.336 373.514 128.336C373.309 128.336 373.101 128.374 372.89 128.45C372.685 128.521 372.471 128.638 372.248 128.802C372.031 128.96 371.8 129.165 371.554 129.417C371.308 129.669 371.044 129.974 370.763 130.331V136H369.216V127.176ZM384.421 136L384.386 134.813C383.905 135.288 383.416 135.631 382.918 135.842C382.426 136.053 381.907 136.158 381.362 136.158C380.858 136.158 380.428 136.094 380.07 135.965C379.713 135.836 379.417 135.66 379.183 135.438C378.954 135.209 378.784 134.942 378.673 134.638C378.567 134.333 378.515 134.002 378.515 133.645C378.515 132.76 378.843 132.068 379.499 131.57C380.161 131.066 381.137 130.814 382.426 130.814H384.254V130.041C384.254 129.52 384.087 129.104 383.753 128.793C383.419 128.477 382.909 128.318 382.224 128.318C381.726 128.318 381.233 128.374 380.747 128.485C380.267 128.597 379.769 128.755 379.253 128.96V127.58C379.446 127.51 379.66 127.442 379.895 127.378C380.135 127.308 380.387 127.246 380.65 127.193C380.914 127.141 381.189 127.1 381.477 127.07C381.764 127.035 382.054 127.018 382.347 127.018C382.88 127.018 383.36 127.076 383.788 127.193C384.216 127.311 384.576 127.489 384.869 127.729C385.168 127.97 385.396 128.271 385.555 128.635C385.713 128.998 385.792 129.426 385.792 129.918V136H384.421ZM384.254 131.983H382.312C381.931 131.983 381.603 132.021 381.327 132.098C381.052 132.174 380.826 132.282 380.65 132.423C380.475 132.563 380.343 132.733 380.255 132.933C380.173 133.126 380.132 133.346 380.132 133.592C380.132 133.762 380.158 133.926 380.211 134.084C380.264 134.236 380.349 134.374 380.466 134.497C380.583 134.614 380.735 134.708 380.923 134.778C381.11 134.849 381.339 134.884 381.608 134.884C381.96 134.884 382.361 134.778 382.812 134.567C383.27 134.351 383.75 134.011 384.254 133.548V131.983ZM389.009 127.176H390.406L390.45 128.802C390.972 128.175 391.484 127.721 391.988 127.439C392.498 127.158 393.011 127.018 393.526 127.018C394.44 127.018 395.132 127.313 395.601 127.905C396.075 128.497 396.295 129.376 396.26 130.542H394.713C394.73 129.769 394.616 129.209 394.37 128.863C394.13 128.512 393.775 128.336 393.307 128.336C393.102 128.336 392.894 128.374 392.683 128.45C392.478 128.521 392.264 128.638 392.041 128.802C391.824 128.96 391.593 129.165 391.347 129.417C391.101 129.669 390.837 129.974 390.556 130.331V136H389.009V127.176ZM406.394 127.176L403.388 135.068C403.077 135.871 402.755 136.562 402.421 137.143C402.093 137.723 401.732 138.197 401.34 138.566C400.947 138.941 400.517 139.217 400.048 139.393C399.579 139.568 399.055 139.656 398.475 139.656C398.322 139.656 398.185 139.653 398.062 139.647C397.938 139.642 397.804 139.633 397.657 139.621V138.232C397.786 138.25 397.927 138.265 398.079 138.276C398.231 138.294 398.393 138.303 398.562 138.303C398.844 138.303 399.104 138.262 399.345 138.18C399.591 138.098 399.822 137.963 400.039 137.775C400.256 137.594 400.464 137.356 400.663 137.063C400.862 136.771 401.056 136.416 401.243 136L397.719 127.176H399.459L401.691 133.012L402.14 134.383L402.649 132.977L404.715 127.176H406.394ZM426.169 125.005C425.366 124.835 424.675 124.75 424.095 124.75C422.718 124.75 422.029 125.471 422.029 126.912V128.459H425.896V129.733H422.029V136H420.474V129.733H417.635V128.459H420.474V127C420.474 124.65 421.698 123.476 424.147 123.476C424.757 123.476 425.431 123.546 426.169 123.687V125.005ZM435.916 131.518C435.916 132.203 435.819 132.833 435.626 133.407C435.433 133.976 435.154 134.465 434.791 134.875C434.428 135.279 433.985 135.596 433.464 135.824C432.942 136.047 432.351 136.158 431.688 136.158C431.056 136.158 430.487 136.062 429.983 135.868C429.485 135.669 429.061 135.379 428.709 134.998C428.363 134.617 428.097 134.146 427.909 133.583C427.728 133.021 427.637 132.373 427.637 131.641C427.637 130.955 427.733 130.331 427.927 129.769C428.12 129.2 428.398 128.714 428.762 128.31C429.125 127.899 429.567 127.583 430.089 127.36C430.61 127.132 431.202 127.018 431.864 127.018C432.497 127.018 433.062 127.117 433.561 127.316C434.064 127.51 434.489 127.797 434.835 128.178C435.187 128.553 435.453 129.021 435.635 129.584C435.822 130.146 435.916 130.791 435.916 131.518ZM434.352 131.588C434.352 131.043 434.29 130.568 434.167 130.164C434.05 129.754 433.88 129.414 433.657 129.145C433.435 128.869 433.162 128.664 432.84 128.529C432.523 128.389 432.169 128.318 431.776 128.318C431.319 128.318 430.927 128.409 430.599 128.591C430.276 128.767 430.01 129.004 429.799 129.303C429.594 129.602 429.441 129.95 429.342 130.349C429.248 130.741 429.201 131.154 429.201 131.588C429.201 132.133 429.26 132.61 429.377 133.021C429.5 133.431 429.673 133.773 429.896 134.049C430.118 134.318 430.388 134.523 430.704 134.664C431.021 134.799 431.378 134.866 431.776 134.866C432.233 134.866 432.623 134.778 432.945 134.603C433.273 134.421 433.54 134.181 433.745 133.882C433.956 133.583 434.108 133.237 434.202 132.845C434.302 132.446 434.352 132.027 434.352 131.588ZM438.491 127.176H439.889L439.933 128.802C440.454 128.175 440.967 127.721 441.471 127.439C441.98 127.158 442.493 127.018 443.009 127.018C443.923 127.018 444.614 127.313 445.083 127.905C445.558 128.497 445.777 129.376 445.742 130.542H444.195C444.213 129.769 444.099 129.209 443.853 128.863C443.612 128.512 443.258 128.336 442.789 128.336C442.584 128.336 442.376 128.374 442.165 128.45C441.96 128.521 441.746 128.638 441.523 128.802C441.307 128.96 441.075 129.165 440.829 129.417C440.583 129.669 440.319 129.974 440.038 130.331V136H438.491V127.176ZM458.284 127.176H459.682L459.726 128.802C460.247 128.175 460.76 127.721 461.264 127.439C461.773 127.158 462.286 127.018 462.802 127.018C463.716 127.018 464.407 127.313 464.876 127.905C465.351 128.497 465.57 129.376 465.535 130.542H463.988C464.006 129.769 463.892 129.209 463.646 128.863C463.405 128.512 463.051 128.336 462.582 128.336C462.377 128.336 462.169 128.374 461.958 128.45C461.753 128.521 461.539 128.638 461.316 128.802C461.1 128.96 460.868 129.165 460.622 129.417C460.376 129.669 460.112 129.974 459.831 130.331V136H458.284V127.176ZM475.273 131.122C475.273 131.339 475.271 131.521 475.265 131.667C475.259 131.813 475.25 131.951 475.238 132.08H469.042C469.042 132.982 469.294 133.677 469.798 134.163C470.302 134.644 471.028 134.884 471.978 134.884C472.235 134.884 472.493 134.875 472.751 134.857C473.009 134.834 473.258 134.805 473.498 134.77C473.738 134.734 473.967 134.696 474.184 134.655C474.406 134.608 474.611 134.559 474.799 134.506V135.763C474.383 135.88 473.911 135.974 473.384 136.044C472.862 136.12 472.32 136.158 471.758 136.158C471.002 136.158 470.352 136.056 469.807 135.851C469.262 135.646 468.813 135.35 468.462 134.963C468.116 134.57 467.858 134.093 467.688 133.53C467.524 132.962 467.442 132.32 467.442 131.605C467.442 130.984 467.53 130.398 467.706 129.848C467.888 129.291 468.148 128.805 468.488 128.389C468.834 127.967 469.256 127.633 469.754 127.387C470.252 127.141 470.817 127.018 471.45 127.018C472.065 127.018 472.61 127.114 473.085 127.308C473.56 127.501 473.958 127.776 474.28 128.134C474.608 128.485 474.854 128.916 475.019 129.426C475.188 129.93 475.273 130.495 475.273 131.122ZM473.683 130.902C473.7 130.51 473.662 130.152 473.568 129.83C473.475 129.502 473.328 129.221 473.129 128.986C472.936 128.752 472.692 128.57 472.399 128.441C472.106 128.307 471.767 128.239 471.38 128.239C471.046 128.239 470.741 128.304 470.466 128.433C470.19 128.562 469.953 128.743 469.754 128.978C469.555 129.212 469.394 129.493 469.271 129.821C469.147 130.149 469.071 130.51 469.042 130.902H473.683ZM483.386 136L483.351 134.813C482.87 135.288 482.381 135.631 481.883 135.842C481.391 136.053 480.872 136.158 480.327 136.158C479.823 136.158 479.393 136.094 479.035 135.965C478.678 135.836 478.382 135.66 478.147 135.438C477.919 135.209 477.749 134.942 477.638 134.638C477.532 134.333 477.479 134.002 477.479 133.645C477.479 132.76 477.808 132.068 478.464 131.57C479.126 131.066 480.102 130.814 481.391 130.814H483.219V130.041C483.219 129.52 483.052 129.104 482.718 128.793C482.384 128.477 481.874 128.318 481.188 128.318C480.69 128.318 480.198 128.374 479.712 128.485C479.231 128.597 478.733 128.755 478.218 128.96V127.58C478.411 127.51 478.625 127.442 478.859 127.378C479.1 127.308 479.352 127.246 479.615 127.193C479.879 127.141 480.154 127.1 480.441 127.07C480.729 127.035 481.019 127.018 481.312 127.018C481.845 127.018 482.325 127.076 482.753 127.193C483.181 127.311 483.541 127.489 483.834 127.729C484.133 127.97 484.361 128.271 484.52 128.635C484.678 128.998 484.757 129.426 484.757 129.918V136H483.386ZM483.219 131.983H481.276C480.896 131.983 480.567 132.021 480.292 132.098C480.017 132.174 479.791 132.282 479.615 132.423C479.439 132.563 479.308 132.733 479.22 132.933C479.138 133.126 479.097 133.346 479.097 133.592C479.097 133.762 479.123 133.926 479.176 134.084C479.229 134.236 479.313 134.374 479.431 134.497C479.548 134.614 479.7 134.708 479.888 134.778C480.075 134.849 480.304 134.884 480.573 134.884C480.925 134.884 481.326 134.778 481.777 134.567C482.234 134.351 482.715 134.011 483.219 133.548V131.983ZM494.469 135.675C494.07 135.827 493.66 135.938 493.238 136.009C492.822 136.085 492.392 136.123 491.946 136.123C490.552 136.123 489.477 135.745 488.721 134.989C487.971 134.233 487.596 133.129 487.596 131.676C487.596 130.979 487.704 130.346 487.921 129.777C488.138 129.209 488.442 128.723 488.835 128.318C489.228 127.914 489.696 127.604 490.241 127.387C490.786 127.164 491.387 127.053 492.043 127.053C492.5 127.053 492.928 127.085 493.326 127.149C493.725 127.214 494.105 127.319 494.469 127.466V128.925C494.088 128.726 493.698 128.582 493.3 128.494C492.907 128.4 492.5 128.354 492.078 128.354C491.686 128.354 491.313 128.43 490.962 128.582C490.616 128.729 490.312 128.942 490.048 129.224C489.784 129.505 489.576 129.848 489.424 130.252C489.271 130.656 489.195 131.113 489.195 131.623C489.195 132.689 489.453 133.489 489.969 134.022C490.49 134.55 491.211 134.813 492.131 134.813C492.547 134.813 492.948 134.767 493.335 134.673C493.728 134.579 494.105 134.438 494.469 134.251V135.675ZM504.62 135.877C504.274 135.965 503.917 136.026 503.548 136.062C503.179 136.103 502.804 136.123 502.423 136.123C501.315 136.123 500.489 135.874 499.944 135.376C499.399 134.872 499.127 134.102 499.127 133.064V128.459H496.657V127.176H499.127V124.75L500.656 124.354V127.176H504.62V128.459H500.656V132.941C500.656 133.574 500.823 134.049 501.157 134.365C501.497 134.676 501.995 134.831 502.651 134.831C502.933 134.831 503.24 134.811 503.574 134.77C503.908 134.723 504.257 134.652 504.62 134.559V135.877Z" fill="white" fill-opacity="0.72"/>
</svg>
