<svg width="1799" height="708" viewBox="0 0 1799 708" fill="none" xmlns="http://www.w3.org/2000/svg">
<g clip-path="url(#clip0)">
<path fill-rule="evenodd" clip-rule="evenodd" d="M124 17L164.479 97.6167C203.562 178.233 283.125 339.467 362.687 420.083C443.646 500.7 523.208 500.7 602.772 431.6C682.333 362.5 761.897 224.3 841.458 224.3C921.022 224.3 1001.98 362.5 1081.54 362.5C1161.11 362.5 1240.67 224.3 1320.23 166.717C1399.79 109.133 1479.36 132.167 1560.31 166.717C1639.88 201.267 1719.44 247.333 1758.52 270.367L1799 293.4V708H1758.52C1719.44 708 1639.88 708 1560.31 708C1479.36 708 1399.79 708 1320.23 708C1240.67 708 1161.11 708 1081.54 708C1001.98 708 921.022 708 841.458 708C761.897 708 682.333 708 602.772 708C523.208 708 443.646 708 362.687 708C283.125 708 203.562 708 164.479 708H124V17Z" fill="#002C9E"/>
<path d="M322.355 572.1H334.217L334.753 585.153C336.997 582.358 339.165 580.048 341.257 578.223C343.349 576.342 345.39 574.84 347.379 573.712C349.42 572.581 351.486 571.804 353.578 571.374C355.669 570.89 357.838 570.649 360.083 570.649C367.99 570.649 373.959 573.121 377.99 578.061C382.071 582.95 384.112 590.334 384.112 600.218V652.995H370.796V601.349C370.796 595.009 369.674 590.334 367.429 587.326C365.184 584.266 361.843 582.733 357.404 582.733C355.772 582.733 354.165 583.005 352.583 583.541C351.053 584.026 349.446 584.909 347.762 586.198C346.078 587.436 344.242 589.127 342.252 591.276C340.313 593.425 338.12 596.109 335.671 599.334V652.995H322.355V572.1ZM474.183 611.095C474.183 618.294 473.213 624.578 471.274 629.951C469.386 635.321 466.761 639.78 463.392 643.328C460.025 646.872 456.045 649.53 451.454 651.303C446.863 653.074 441.889 653.961 436.532 653.961C434.083 653.961 431.634 653.827 429.186 653.559C426.788 653.291 424.339 652.833 421.839 652.19V686.029H408.523V572.1H420.385L421.227 585.634C425.053 580.103 429.134 576.236 433.471 574.032C437.807 571.777 442.501 570.649 447.552 570.649C451.941 570.649 455.79 571.615 459.108 573.551C462.422 575.483 465.204 578.223 467.45 581.767C469.693 585.26 471.378 589.502 472.498 594.497C473.621 599.441 474.183 604.972 474.183 611.095ZM460.561 611.741C460.561 607.499 460.254 603.604 459.643 600.06C459.082 596.512 458.164 593.48 456.887 590.953C455.611 588.429 453.978 586.466 451.99 585.071C450.001 583.62 447.628 582.895 444.873 582.895C443.19 582.895 441.481 583.19 439.746 583.782C438.012 584.318 436.2 585.26 434.313 586.604C432.476 587.89 430.512 589.636 428.42 591.84C426.38 593.988 424.186 596.673 421.839 599.898V639.137C424.288 640.21 426.864 641.069 429.568 641.715C432.272 642.307 434.925 642.602 437.527 642.602C444.72 642.602 450.358 640.048 454.439 634.946C458.52 629.79 460.561 622.055 460.561 611.741ZM549.483 652.995V594.903C549.483 592.376 549.381 590.31 549.179 588.698C549.026 587.085 548.745 585.824 548.337 584.909C547.981 583.943 547.494 583.273 546.884 582.895C546.322 582.52 545.607 582.331 544.738 582.331C543.72 582.331 542.776 582.654 541.908 583.3C541.042 583.943 540.099 584.992 539.077 586.442C538.107 587.89 537.01 589.825 535.786 592.242C534.613 594.607 533.209 597.533 531.577 601.026V652.995H519.411V596.433C519.411 593.48 519.307 591.087 519.104 589.261C518.951 587.436 518.67 586.013 518.262 584.992C517.906 583.971 517.419 583.273 516.809 582.895C516.195 582.52 515.457 582.331 514.588 582.331C513.671 582.331 512.802 582.599 511.986 583.139C511.17 583.675 510.252 584.641 509.23 586.037C508.264 587.436 507.167 589.34 505.942 591.761C504.718 594.177 503.262 597.265 501.58 601.026V652.995H489.336V572.1H499.513L500.124 587.487C501.453 584.428 502.726 581.822 503.951 579.673C505.227 577.525 506.527 575.806 507.853 574.517C509.181 573.172 510.582 572.206 512.065 571.615C513.593 570.972 515.277 570.649 517.112 570.649C521.246 570.649 524.384 572.072 526.526 574.919C528.671 577.765 529.742 582.169 529.742 588.134C530.966 585.339 532.165 582.87 533.337 580.722C534.512 578.518 535.759 576.693 537.088 575.242C538.466 573.736 539.968 572.609 541.601 571.856C543.233 571.051 545.124 570.649 547.266 570.649C556.907 570.649 561.727 578.463 561.727 594.095V652.995H549.483ZM693.2 583.702H670.471V572.1H706.668V641.313H729.55V652.995H667.947V641.313H693.2V583.702ZM697.869 538.179C699.348 538.179 700.726 538.475 701.999 539.062C703.276 539.602 704.373 540.379 705.29 541.4C706.26 542.421 707.001 543.604 707.511 544.945C708.072 546.234 708.353 547.657 708.353 549.214C708.353 550.72 708.072 552.143 707.511 553.487C707.001 554.828 706.26 556.011 705.29 557.032C704.373 558.053 703.276 558.857 701.999 559.449C700.726 559.985 699.348 560.253 697.869 560.253C696.39 560.253 695.012 559.985 693.735 559.449C692.462 558.857 691.338 558.053 690.369 557.032C689.451 556.011 688.71 554.828 688.149 553.487C687.639 552.143 687.384 550.72 687.384 549.214C687.384 547.657 687.639 546.234 688.149 544.945C688.71 543.604 689.451 542.421 690.369 541.4C691.338 540.379 692.462 539.602 693.735 539.062C695.012 538.475 696.39 538.179 697.869 538.179ZM753.196 572.1H765.058L765.594 585.153C767.84 582.358 770.008 580.048 772.098 578.223C774.191 576.342 776.231 574.84 778.22 573.712C780.26 572.581 782.327 571.804 784.42 571.374C786.51 570.89 788.678 570.649 790.924 570.649C798.832 570.649 804.801 573.121 808.83 578.061C812.912 582.95 814.952 590.334 814.952 600.218V652.995H801.637V601.349C801.637 595.009 800.514 590.334 798.271 587.326C796.024 584.266 792.684 582.733 788.247 582.733C786.614 582.733 785.005 583.005 783.424 583.541C781.893 584.026 780.287 584.909 778.602 586.198C776.92 587.436 775.082 589.127 773.094 591.276C771.154 593.425 768.96 596.109 766.511 599.334V652.995H753.196V572.1ZM900.204 630.917C900.204 633.764 899.744 636.315 898.826 638.573C897.905 640.828 896.658 642.843 895.075 644.614C893.494 646.332 891.656 647.811 889.566 649.048C887.473 650.282 885.23 651.304 882.831 652.108C880.486 652.916 878.06 653.504 875.562 653.882C873.061 654.257 870.612 654.446 868.216 654.446C863.011 654.446 858.215 654.205 853.827 653.72C849.49 653.236 845.233 652.459 841.047 651.383V638.491C845.536 639.835 850.003 640.856 854.44 641.554C858.878 642.252 863.292 642.602 867.68 642.602C874.057 642.602 878.775 641.688 881.838 639.862C884.897 638.034 886.429 635.431 886.429 632.045C886.429 630.594 886.174 629.305 885.661 628.177C885.204 626.998 884.336 625.895 883.062 624.874C881.786 623.801 879.797 622.701 877.09 621.57C874.439 620.442 870.792 619.153 866.149 617.702C862.678 616.63 859.465 615.42 856.507 614.079C853.598 612.68 851.074 611.043 848.929 609.163C846.787 607.282 845.105 605.079 843.881 602.555C842.657 600.032 842.043 597.051 842.043 593.614C842.043 591.355 842.526 588.887 843.496 586.198C844.518 583.513 846.225 581.014 848.625 578.707C851.022 576.397 854.261 574.489 858.342 572.987C862.424 571.426 867.527 570.649 873.649 570.649C876.659 570.649 880 570.838 883.673 571.213C887.346 571.536 891.173 572.127 895.153 572.987V585.473C890.967 584.4 886.99 583.62 883.213 583.139C879.49 582.599 876.251 582.331 873.496 582.331C870.178 582.331 867.373 582.599 865.078 583.139C862.832 583.675 860.997 584.428 859.567 585.394C858.189 586.308 857.196 587.408 856.582 588.698C855.972 589.932 855.665 591.276 855.665 592.727C855.665 594.177 855.92 595.491 856.429 596.673C856.99 597.856 857.986 599.011 859.413 600.139C860.895 601.215 862.933 602.315 865.535 603.442C868.137 604.515 871.53 605.698 875.716 606.987C880.254 608.382 884.081 609.861 887.193 611.418C890.304 612.924 892.832 614.615 894.768 616.496C896.707 618.376 898.085 620.497 898.901 622.859C899.77 625.224 900.204 627.909 900.204 630.917ZM987.441 651.867C984.431 652.672 981.319 653.236 978.106 653.559C974.893 653.933 971.628 654.123 968.311 654.123C958.669 654.123 951.476 651.84 946.732 647.274C941.984 642.654 939.614 635.593 939.614 626.084V583.864H918.11V572.1H939.614V549.861L952.929 546.234V572.1H987.441V583.864H952.929V624.956C952.929 630.756 954.382 635.108 957.291 638.01C960.249 640.856 964.586 642.279 970.299 642.279C972.748 642.279 975.429 642.09 978.335 641.715C981.244 641.286 984.281 640.639 987.441 639.78V651.867ZM1061.06 652.995L1060.75 642.118C1056.57 646.47 1052.31 649.612 1047.97 651.544C1043.69 653.48 1039.17 654.446 1034.43 654.446C1030.04 654.446 1026.29 653.854 1023.18 652.672C1020.07 651.489 1017.49 649.88 1015.45 647.838C1013.46 645.745 1011.98 643.3 1011.01 640.505C1010.09 637.714 1009.63 634.678 1009.63 631.402C1009.63 623.289 1012.49 616.953 1018.21 612.388C1023.97 607.767 1032.46 605.457 1043.69 605.457H1059.61V598.365C1059.61 593.586 1058.15 589.77 1055.24 586.924C1052.34 584.026 1047.9 582.575 1041.93 582.575C1037.59 582.575 1033.31 583.084 1029.07 584.105C1024.89 585.126 1020.55 586.576 1016.06 588.457V575.806C1017.75 575.159 1019.61 574.544 1021.65 573.953C1023.74 573.306 1025.93 572.743 1028.23 572.261C1030.53 571.777 1032.92 571.402 1035.43 571.134C1037.92 570.811 1040.45 570.649 1043 570.649C1047.64 570.649 1051.83 571.185 1055.55 572.261C1059.27 573.334 1062.41 574.974 1064.96 577.174C1067.56 579.378 1069.56 582.145 1070.93 585.473C1072.31 588.804 1073 592.727 1073 597.237V652.995H1061.06ZM1059.61 616.173H1042.69C1039.38 616.173 1036.52 616.523 1034.12 617.221C1031.73 617.919 1029.76 618.912 1028.23 620.202C1026.7 621.491 1025.55 623.048 1024.79 624.874C1024.07 626.648 1023.72 628.662 1023.72 630.917C1023.72 632.475 1023.95 633.98 1024.41 635.431C1024.86 636.827 1025.6 638.089 1026.62 639.216C1027.64 640.292 1028.97 641.152 1030.6 641.795C1032.24 642.441 1034.22 642.761 1036.57 642.761C1039.63 642.761 1043.13 641.795 1047.06 639.862C1051.04 637.875 1055.22 634.757 1059.61 630.515V616.173ZM1124.04 550.665H1101.31V539.145H1137.51V641.313H1160.39V652.995H1098.79V641.313H1124.04V550.665ZM1210.21 550.665H1187.48V539.145H1223.68V641.313H1246.56V652.995H1184.96V641.313H1210.21V550.665ZM1425.48 652.995H1407.19L1371.37 609.648V652.995H1358.06V539.145H1371.37V609.084L1405.89 572.1H1423.49L1387.44 609.404L1425.48 652.995ZM1468.71 550.665H1445.99V539.145H1482.18V641.313H1505.07V652.995H1443.46V641.313H1468.71V550.665ZM1578.07 652.995L1577.76 642.118C1573.58 646.47 1569.32 649.612 1564.98 651.544C1560.7 653.48 1556.18 654.446 1551.44 654.446C1547.05 654.446 1543.3 653.854 1540.19 652.672C1537.08 651.489 1534.5 649.88 1532.46 647.838C1530.47 645.745 1528.99 643.3 1528.02 640.505C1527.1 637.714 1526.64 634.678 1526.64 631.402C1526.64 623.289 1529.5 616.953 1535.22 612.388C1540.98 607.767 1549.47 605.457 1560.7 605.457H1576.62V598.365C1576.62 593.586 1575.16 589.77 1572.25 586.924C1569.35 584.026 1564.91 582.575 1558.94 582.575C1554.6 582.575 1550.32 583.084 1546.08 584.105C1541.9 585.126 1537.56 586.576 1533.07 588.457V575.806C1534.75 575.159 1536.62 574.544 1538.66 573.953C1540.75 573.306 1542.94 572.743 1545.24 572.261C1547.53 571.777 1549.93 571.402 1552.43 571.134C1554.93 570.811 1557.46 570.649 1560.01 570.649C1564.65 570.649 1568.84 571.185 1572.56 572.261C1576.28 573.334 1579.42 574.974 1581.97 577.174C1584.57 579.378 1586.57 582.145 1587.94 585.473C1589.32 588.804 1590.01 592.727 1590.01 597.237V652.995H1578.07ZM1576.62 616.173H1559.7C1556.39 616.173 1553.53 616.523 1551.13 617.221C1548.74 617.919 1546.77 618.912 1545.24 620.202C1543.71 621.491 1542.56 623.048 1541.8 624.874C1541.08 626.648 1540.72 628.662 1540.72 630.917C1540.72 632.475 1540.96 633.98 1541.41 635.431C1541.87 636.827 1542.61 638.089 1543.63 639.216C1544.65 640.292 1545.98 641.152 1547.61 641.795C1549.25 642.441 1551.23 642.761 1553.58 642.761C1556.64 642.761 1560.14 641.795 1564.07 639.862C1568.05 637.875 1572.23 634.757 1576.62 630.515V616.173ZM1610.98 614.241C1610.98 607.365 1611.87 601.266 1613.65 595.948C1615.44 590.578 1617.97 586.064 1621.23 582.413C1624.55 578.707 1628.5 575.912 1633.09 574.032C1637.73 572.1 1642.89 571.134 1648.55 571.134C1651 571.134 1653.4 571.292 1655.74 571.615C1658.14 571.938 1660.49 572.447 1662.78 573.145V539.145H1676.18V652.995H1664.24L1663.78 637.686C1660.05 643.379 1656.02 647.598 1651.69 650.338C1647.35 653.074 1642.66 654.446 1637.61 654.446C1633.22 654.446 1629.34 653.48 1625.98 651.544C1622.66 649.612 1619.88 646.9 1617.63 643.407C1615.44 639.862 1613.78 635.617 1612.66 630.677C1611.54 625.733 1610.98 620.257 1610.98 614.241ZM1624.6 613.354C1624.6 623.127 1625.95 630.436 1628.65 635.27C1631.41 640.048 1635.28 642.441 1640.29 642.441C1643.65 642.441 1647.2 640.856 1650.92 637.686C1654.7 634.517 1658.65 629.817 1662.78 623.584V586.037C1660.59 584.964 1658.17 584.16 1655.51 583.62C1652.86 583.029 1650.24 582.733 1647.63 582.733C1640.39 582.733 1634.73 585.205 1630.64 590.148C1626.61 595.088 1624.6 602.823 1624.6 613.354ZM1727.22 583.702H1704.49V572.1H1740.69V641.313H1763.57V652.995H1701.96V641.313H1727.22V583.702ZM1731.89 538.179C1733.36 538.179 1734.74 538.475 1736.02 539.062C1737.3 539.602 1738.39 540.379 1739.31 541.4C1740.28 542.421 1741.02 543.604 1741.53 544.945C1742.09 546.234 1742.37 547.657 1742.37 549.214C1742.37 550.72 1742.09 552.143 1741.53 553.487C1741.02 554.828 1740.28 556.011 1739.31 557.032C1738.39 558.053 1737.3 558.857 1736.02 559.449C1734.74 559.985 1733.36 560.253 1731.89 560.253C1730.41 560.253 1729.03 559.985 1727.76 559.449C1726.48 558.857 1725.36 558.053 1724.39 557.032C1723.47 556.011 1722.73 554.828 1722.17 553.487C1721.66 552.143 1721.4 550.72 1721.4 549.214C1721.4 547.657 1721.66 546.234 1722.17 544.945C1722.73 543.604 1723.47 542.421 1724.39 541.4C1725.36 540.379 1726.48 539.602 1727.76 539.062C1729.03 538.475 1730.41 538.179 1731.89 538.179Z" fill="white"/>
<path d="M1022.64 408.251H1018.32L1016.29 400.454H1004.17L1002.12 408.251H998L1007.67 372.495H1013.11L1022.64 408.251ZM1015.15 396.105L1010.23 376.98L1005.31 396.105H1015.15ZM1026.43 380.784H1029.88L1030.04 385.217C1030.69 384.267 1031.32 383.483 1031.93 382.864C1032.54 382.225 1033.14 381.715 1033.72 381.332C1034.31 380.949 1034.91 380.685 1035.52 380.538C1036.13 380.373 1036.76 380.292 1037.41 380.292C1039.72 380.292 1041.45 381.13 1042.63 382.808C1043.82 384.467 1044.41 386.976 1044.41 390.331V408.251H1040.53V390.714C1040.53 388.563 1040.21 386.976 1039.55 385.955C1038.9 384.915 1037.93 384.395 1036.63 384.395C1036.16 384.395 1035.69 384.485 1035.23 384.669C1034.79 384.834 1034.32 385.133 1033.83 385.572C1033.34 385.992 1032.8 386.565 1032.22 387.296C1031.66 388.025 1031.02 388.937 1030.31 390.029V408.251H1026.43V380.784ZM1095.5 393.067C1095.5 393.743 1095.49 394.309 1095.48 394.764C1095.46 395.218 1095.44 395.648 1095.41 396.049H1079.7C1079.7 398.857 1080.34 401.02 1081.62 402.533C1082.9 404.03 1084.74 404.778 1087.14 404.778C1087.8 404.778 1088.45 404.75 1089.1 404.693C1089.76 404.622 1090.39 404.532 1091 404.423C1091.61 404.311 1092.19 404.192 1092.74 404.065C1093.3 403.918 1093.82 403.766 1094.3 403.601V407.514C1093.24 407.878 1092.05 408.17 1090.71 408.388C1089.39 408.625 1088.01 408.743 1086.59 408.743C1084.67 408.743 1083.02 408.426 1081.64 407.788C1080.26 407.149 1079.12 406.228 1078.23 405.023C1077.36 403.8 1076.7 402.315 1076.27 400.563C1075.86 398.795 1075.65 396.796 1075.65 394.571C1075.65 392.638 1075.87 390.814 1076.31 389.102C1076.78 387.368 1077.44 385.855 1078.3 384.56C1079.17 383.246 1080.24 382.207 1081.51 381.441C1082.77 380.675 1084.2 380.292 1085.81 380.292C1087.37 380.292 1088.75 380.591 1089.95 381.195C1091.15 381.796 1092.16 382.652 1092.98 383.766C1093.81 384.859 1094.44 386.201 1094.85 387.788C1095.28 389.357 1095.5 391.116 1095.5 393.067ZM1091.47 392.382C1091.51 391.162 1091.41 390.048 1091.18 389.046C1090.94 388.025 1090.57 387.15 1090.06 386.418C1089.57 385.69 1088.96 385.123 1088.21 384.722C1087.47 384.305 1086.61 384.093 1085.63 384.093C1084.78 384.093 1084.01 384.295 1083.31 384.697C1082.61 385.099 1082.01 385.662 1081.51 386.393C1081 387.122 1080.59 387.997 1080.28 389.018C1079.97 390.039 1079.78 391.162 1079.7 392.382H1091.47ZM1116.06 408.251L1115.97 404.557C1114.76 406.035 1113.52 407.103 1112.25 407.76C1111.01 408.416 1109.69 408.743 1108.31 408.743C1107.03 408.743 1105.94 408.544 1105.04 408.142C1104.13 407.741 1103.38 407.193 1102.79 406.502C1102.2 405.789 1101.77 404.958 1101.49 404.012C1101.23 403.062 1101.09 402.032 1101.09 400.921C1101.09 398.166 1101.92 396.012 1103.59 394.462C1105.26 392.893 1107.74 392.109 1111.01 392.109H1115.64V389.702C1115.64 388.081 1115.22 386.786 1114.37 385.818C1113.52 384.834 1112.23 384.339 1110.49 384.339C1109.23 384.339 1107.98 384.513 1106.75 384.859C1105.53 385.208 1104.27 385.699 1102.96 386.337V382.042C1103.45 381.824 1103.99 381.612 1104.59 381.413C1105.2 381.195 1105.84 381.002 1106.51 380.837C1107.17 380.675 1107.87 380.548 1108.6 380.454C1109.33 380.345 1110.06 380.292 1110.81 380.292C1112.16 380.292 1113.38 380.473 1114.46 380.837C1115.54 381.204 1116.46 381.759 1117.2 382.506C1117.96 383.256 1118.54 384.193 1118.94 385.326C1119.34 386.456 1119.54 387.788 1119.54 389.319V408.251H1116.06ZM1115.64 395.747H1110.72C1109.75 395.747 1108.92 395.866 1108.22 396.105C1107.52 396.342 1106.95 396.678 1106.51 397.117C1106.06 397.553 1105.73 398.082 1105.5 398.705C1105.29 399.305 1105.19 399.99 1105.19 400.756C1105.19 401.285 1105.26 401.795 1105.39 402.287C1105.53 402.76 1105.74 403.19 1106.04 403.573C1106.33 403.937 1106.72 404.23 1107.2 404.448C1107.67 404.669 1108.25 404.778 1108.94 404.778C1109.82 404.778 1110.84 404.448 1111.99 403.791C1113.15 403.118 1114.36 402.06 1115.64 400.619V395.747ZM1144.49 400.756C1144.49 401.721 1144.36 402.589 1144.09 403.355C1143.82 404.121 1143.46 404.806 1143 405.406C1142.54 405.988 1142.01 406.493 1141.4 406.91C1140.79 407.33 1140.13 407.676 1139.44 407.949C1138.75 408.223 1138.05 408.426 1137.32 408.553C1136.59 408.681 1135.88 408.743 1135.18 408.743C1133.66 408.743 1132.27 408.662 1130.99 408.497C1129.73 408.332 1128.49 408.068 1127.27 407.704V403.327C1128.58 403.781 1129.88 404.13 1131.17 404.367C1132.46 404.603 1133.75 404.721 1135.03 404.721C1136.88 404.721 1138.26 404.413 1139.15 403.791C1140.04 403.171 1140.48 402.287 1140.48 401.139C1140.48 400.647 1140.41 400.208 1140.26 399.825C1140.13 399.424 1139.87 399.05 1139.5 398.705C1139.13 398.337 1138.55 397.964 1137.77 397.581C1136.99 397.198 1135.93 396.762 1134.58 396.267C1133.57 395.903 1132.63 395.492 1131.77 395.038C1130.92 394.565 1130.19 394.007 1129.57 393.369C1128.94 392.731 1128.45 391.981 1128.09 391.125C1127.74 390.269 1127.56 389.254 1127.56 388.087C1127.56 387.321 1127.7 386.484 1127.98 385.572C1128.28 384.66 1128.78 383.81 1129.48 383.025C1130.18 382.244 1131.12 381.597 1132.31 381.083C1133.49 380.557 1134.98 380.292 1136.76 380.292C1137.64 380.292 1138.61 380.355 1139.68 380.482C1140.75 380.591 1141.86 380.794 1143.02 381.083V385.326C1141.8 384.962 1140.65 384.697 1139.55 384.532C1138.46 384.348 1137.52 384.258 1136.72 384.258C1135.75 384.258 1134.93 384.348 1134.27 384.532C1133.61 384.713 1133.08 384.971 1132.66 385.298C1132.26 385.609 1131.97 385.983 1131.79 386.418C1131.62 386.839 1131.53 387.296 1131.53 387.788C1131.53 388.28 1131.6 388.728 1131.75 389.127C1131.91 389.528 1132.2 389.92 1132.62 390.303C1133.05 390.67 1133.64 391.044 1134.4 391.427C1135.16 391.791 1136.15 392.193 1137.36 392.628C1138.69 393.105 1139.8 393.606 1140.71 394.135C1141.61 394.645 1142.35 395.218 1142.91 395.859C1143.48 396.498 1143.88 397.217 1144.12 398.02C1144.37 398.823 1144.49 399.735 1144.49 400.756ZM1171.77 380.784L1164.15 405.35C1163.36 407.85 1162.54 410.001 1161.69 411.809C1160.86 413.615 1159.95 415.09 1158.95 416.239C1157.96 417.406 1156.87 418.265 1155.68 418.813C1154.49 419.358 1153.16 419.632 1151.69 419.632C1151.3 419.632 1150.96 419.622 1150.64 419.604C1150.33 419.588 1149.99 419.56 1149.62 419.523V415.199C1149.94 415.255 1150.3 415.302 1150.69 415.336C1151.07 415.392 1151.48 415.42 1151.91 415.42C1152.63 415.42 1153.29 415.292 1153.9 415.037C1154.52 414.782 1155.11 414.362 1155.66 413.777C1156.21 413.213 1156.73 412.472 1157.24 411.56C1157.74 410.651 1158.23 409.546 1158.71 408.251L1149.77 380.784H1154.19L1159.85 398.95L1160.98 403.218L1162.27 398.841L1167.51 380.784H1171.77ZM1220.07 407.869C1219.19 408.142 1218.29 408.332 1217.35 408.444C1216.41 408.572 1215.46 408.634 1214.5 408.634C1211.69 408.634 1209.6 407.859 1208.22 406.309C1206.83 404.74 1206.14 402.343 1206.14 399.112V384.778H1199.88V380.784H1206.14V373.233L1210.02 372V380.784H1220.07V384.778H1210.02V398.729C1210.02 400.7 1210.44 402.178 1211.29 403.162C1212.15 404.13 1213.41 404.613 1215.08 404.613C1215.79 404.613 1216.57 404.55 1217.42 404.423C1218.27 404.276 1219.15 404.055 1220.07 403.766V407.869ZM1246.6 394.3C1246.6 396.432 1246.36 398.393 1245.87 400.18C1245.38 401.951 1244.68 403.473 1243.75 404.75C1242.83 406.007 1241.71 406.994 1240.39 407.704C1239.07 408.398 1237.57 408.743 1235.89 408.743C1234.28 408.743 1232.84 408.444 1231.57 407.84C1230.3 407.221 1229.23 406.318 1228.33 405.132C1227.46 403.946 1226.78 402.48 1226.31 400.728C1225.85 398.978 1225.62 396.961 1225.62 394.683C1225.62 392.547 1225.86 390.605 1226.35 388.856C1226.84 387.085 1227.55 385.572 1228.47 384.314C1229.39 383.035 1230.51 382.051 1231.83 381.357C1233.16 380.647 1234.65 380.292 1236.33 380.292C1237.94 380.292 1239.37 380.601 1240.63 381.22C1241.91 381.824 1242.99 382.717 1243.86 383.903C1244.76 385.071 1245.43 386.527 1245.89 388.28C1246.37 390.029 1246.6 392.037 1246.6 394.3ZM1242.64 394.518C1242.64 392.821 1242.48 391.343 1242.17 390.085C1241.87 388.809 1241.44 387.751 1240.88 386.913C1240.31 386.054 1239.62 385.416 1238.81 384.996C1238.01 384.56 1237.11 384.339 1236.11 384.339C1234.95 384.339 1233.96 384.622 1233.13 385.189C1232.31 385.737 1231.63 386.474 1231.1 387.405C1230.58 388.336 1230.19 389.419 1229.94 390.661C1229.7 391.881 1229.58 393.167 1229.58 394.518C1229.58 396.214 1229.73 397.699 1230.03 398.978C1230.34 400.255 1230.78 401.319 1231.34 402.178C1231.91 403.016 1232.59 403.654 1233.39 404.093C1234.2 404.513 1235.1 404.721 1236.11 404.721C1237.27 404.721 1238.26 404.448 1239.08 403.903C1239.91 403.336 1240.58 402.589 1241.1 401.659C1241.64 400.728 1242.02 399.651 1242.26 398.431C1242.51 397.189 1242.64 395.884 1242.64 394.518ZM1295.29 408.251H1291.81L1291.68 403.819C1291.01 404.768 1290.37 405.562 1289.76 406.2C1289.17 406.82 1288.57 407.321 1287.98 407.704C1287.39 408.086 1286.78 408.351 1286.18 408.497C1285.58 408.662 1284.95 408.743 1284.28 408.743C1281.98 408.743 1280.24 407.915 1279.07 406.253C1277.89 404.594 1277.31 402.088 1277.31 398.729V380.784H1281.18V398.347C1281.18 402.561 1282.48 404.669 1285.06 404.669C1285.54 404.669 1286 404.585 1286.44 404.423C1286.9 404.239 1287.38 403.937 1287.87 403.517C1288.37 403.081 1288.91 402.496 1289.47 401.767C1290.05 401.039 1290.7 400.118 1291.41 399.003V380.784H1295.29V408.251ZM1320.11 400.756C1320.11 401.721 1319.98 402.589 1319.71 403.355C1319.44 404.121 1319.08 404.806 1318.61 405.406C1318.16 405.988 1317.62 406.493 1317.01 406.91C1316.4 407.33 1315.75 407.676 1315.05 407.949C1314.37 408.223 1313.66 408.426 1312.93 408.553C1312.21 408.681 1311.49 408.743 1310.8 408.743C1309.28 408.743 1307.88 408.662 1306.61 408.497C1305.34 408.332 1304.1 408.068 1302.88 407.704V403.327C1304.19 403.781 1305.49 404.13 1306.78 404.367C1308.08 404.603 1309.36 404.721 1310.64 404.721C1312.49 404.721 1313.87 404.413 1314.76 403.791C1315.65 403.171 1316.1 402.287 1316.1 401.139C1316.1 400.647 1316.02 400.208 1315.87 399.825C1315.74 399.424 1315.49 399.05 1315.12 398.705C1314.75 398.337 1314.17 397.964 1313.38 397.581C1312.61 397.198 1311.54 396.762 1310.19 396.267C1309.18 395.903 1308.25 395.492 1307.39 395.038C1306.54 394.565 1305.8 394.007 1305.18 393.369C1304.56 392.731 1304.07 391.981 1303.71 391.125C1303.35 390.269 1303.18 389.254 1303.18 388.087C1303.18 387.321 1303.32 386.484 1303.6 385.572C1303.9 384.66 1304.39 383.81 1305.09 383.025C1305.79 382.244 1306.73 381.597 1307.92 381.083C1309.11 380.557 1310.59 380.292 1312.38 380.292C1313.25 380.292 1314.23 380.355 1315.3 380.482C1316.37 380.591 1317.48 380.794 1318.64 381.083V385.326C1317.42 384.962 1316.26 384.697 1315.16 384.532C1314.08 384.348 1313.13 384.258 1312.33 384.258C1311.37 384.258 1310.55 384.348 1309.88 384.532C1309.23 384.713 1308.69 384.971 1308.28 385.298C1307.88 385.609 1307.59 385.983 1307.41 386.418C1307.23 386.839 1307.14 387.296 1307.14 387.788C1307.14 388.28 1307.21 388.728 1307.36 389.127C1307.53 389.528 1307.82 389.92 1308.23 390.303C1308.66 390.67 1309.26 391.044 1310.02 391.427C1310.77 391.791 1311.76 392.193 1312.98 392.628C1314.3 393.105 1315.41 393.606 1316.32 394.135C1317.23 394.645 1317.96 395.218 1318.53 395.859C1319.09 396.498 1319.49 397.217 1319.73 398.02C1319.98 398.823 1320.11 399.735 1320.11 400.756ZM1346.38 393.067C1346.38 393.743 1346.37 394.309 1346.35 394.764C1346.34 395.218 1346.32 395.648 1346.29 396.049H1330.58C1330.58 398.857 1331.22 401.02 1332.5 402.533C1333.77 404.03 1335.62 404.778 1338.02 404.778C1338.68 404.778 1339.33 404.75 1339.98 404.693C1340.64 404.622 1341.27 404.532 1341.88 404.423C1342.49 404.311 1343.06 404.192 1343.61 404.065C1344.18 403.918 1344.7 403.766 1345.17 403.601V407.514C1344.12 407.878 1342.92 408.17 1341.59 408.388C1340.27 408.625 1338.89 408.743 1337.46 408.743C1335.55 408.743 1333.9 408.426 1332.52 407.788C1331.14 407.149 1330 406.228 1329.11 405.023C1328.23 403.8 1327.58 402.315 1327.15 400.563C1326.73 398.795 1326.53 396.796 1326.53 394.571C1326.53 392.638 1326.75 390.814 1327.19 389.102C1327.65 387.368 1328.32 385.855 1329.18 384.56C1330.05 383.246 1331.12 382.207 1332.38 381.441C1333.65 380.675 1335.08 380.292 1336.68 380.292C1338.25 380.292 1339.63 380.591 1340.83 381.195C1342.03 381.796 1343.04 382.652 1343.86 383.766C1344.69 384.859 1345.32 386.201 1345.73 387.788C1346.16 389.357 1346.38 391.116 1346.38 393.067ZM1342.34 392.382C1342.39 391.162 1342.29 390.048 1342.06 389.046C1341.82 388.025 1341.44 387.15 1340.94 386.418C1340.45 385.69 1339.83 385.123 1339.09 384.722C1338.35 384.305 1337.49 384.093 1336.51 384.093C1335.66 384.093 1334.89 384.295 1334.19 384.697C1333.49 385.099 1332.89 385.662 1332.38 386.393C1331.88 387.122 1331.47 387.997 1331.16 389.018C1330.85 390.039 1330.66 391.162 1330.58 392.382H1342.34ZM1395.37 400.756C1395.37 401.721 1395.24 402.589 1394.97 403.355C1394.7 404.121 1394.34 404.806 1393.88 405.406C1393.42 405.988 1392.88 406.493 1392.27 406.91C1391.67 407.33 1391.01 407.676 1390.31 407.949C1389.63 408.223 1388.93 408.426 1388.2 408.553C1387.47 408.681 1386.76 408.743 1386.06 408.743C1384.54 408.743 1383.15 408.662 1381.87 408.497C1380.61 408.332 1379.37 408.068 1378.15 407.704V403.327C1379.45 403.781 1380.76 404.13 1382.05 404.367C1383.34 404.603 1384.63 404.721 1385.9 404.721C1387.76 404.721 1389.13 404.413 1390.02 403.791C1390.92 403.171 1391.36 402.287 1391.36 401.139C1391.36 400.647 1391.29 400.208 1391.14 399.825C1391 399.424 1390.75 399.05 1390.38 398.705C1390.01 398.337 1389.43 397.964 1388.64 397.581C1387.87 397.198 1386.81 396.762 1385.46 396.267C1384.45 395.903 1383.51 395.492 1382.65 395.038C1381.8 394.565 1381.07 394.007 1380.44 393.369C1379.82 392.731 1379.33 391.981 1378.97 391.125C1378.62 390.269 1378.44 389.254 1378.44 388.087C1378.44 387.321 1378.58 386.484 1378.86 385.572C1379.16 384.66 1379.66 383.81 1380.35 383.025C1381.05 382.244 1381.99 381.597 1383.18 381.083C1384.37 380.557 1385.86 380.292 1387.64 380.292C1388.52 380.292 1389.49 380.355 1390.56 380.482C1391.63 380.591 1392.74 380.794 1393.9 381.083V385.326C1392.68 384.962 1391.52 384.697 1390.43 384.532C1389.34 384.348 1388.4 384.258 1387.59 384.258C1386.63 384.258 1385.81 384.348 1385.15 384.532C1384.49 384.713 1383.96 384.971 1383.54 385.298C1383.14 385.609 1382.85 385.983 1382.67 386.418C1382.49 386.839 1382.41 387.296 1382.41 387.788C1382.41 388.28 1382.48 388.728 1382.63 389.127C1382.79 389.528 1383.08 389.92 1383.5 390.303C1383.93 390.67 1384.52 391.044 1385.28 391.427C1386.04 391.791 1387.02 392.193 1388.24 392.628C1389.56 393.105 1390.68 393.606 1391.58 394.135C1392.49 394.645 1393.22 395.218 1393.79 395.859C1394.35 396.498 1394.76 397.217 1394.99 398.02C1395.25 398.823 1395.37 399.735 1395.37 400.756ZM1420.77 407.869C1419.9 408.142 1418.99 408.332 1418.05 408.444C1417.12 408.572 1416.17 408.634 1415.2 408.634C1412.39 408.634 1410.3 407.859 1408.92 406.309C1407.54 404.74 1406.85 402.343 1406.85 399.112V384.778H1400.58V380.784H1406.85V373.233L1410.72 372V380.784H1420.77V384.778H1410.72V398.729C1410.72 400.7 1411.14 402.178 1411.99 403.162C1412.85 404.13 1414.12 404.613 1415.78 404.613C1416.49 404.613 1417.27 404.55 1418.12 404.423C1418.97 404.276 1419.85 404.055 1420.77 403.766V407.869ZM1442.2 408.251L1442.12 404.557C1440.9 406.035 1439.66 407.103 1438.39 407.76C1437.15 408.416 1435.83 408.743 1434.45 408.743C1433.17 408.743 1432.08 408.544 1431.18 408.142C1430.27 407.741 1429.52 407.193 1428.93 406.502C1428.35 405.789 1427.92 404.958 1427.63 404.012C1427.37 403.062 1427.23 402.032 1427.23 400.921C1427.23 398.166 1428.06 396.012 1429.73 394.462C1431.41 392.893 1433.88 392.109 1437.15 392.109H1441.78V389.702C1441.78 388.081 1441.36 386.786 1440.51 385.818C1439.66 384.834 1438.37 384.339 1436.63 384.339C1435.37 384.339 1434.12 384.513 1432.89 384.859C1431.67 385.208 1430.41 385.699 1429.1 386.337V382.042C1429.59 381.824 1430.14 381.612 1430.73 381.413C1431.34 381.195 1431.98 381.002 1432.65 380.837C1433.32 380.675 1434.01 380.548 1434.74 380.454C1435.47 380.345 1436.2 380.292 1436.95 380.292C1438.3 380.292 1439.52 380.473 1440.6 380.837C1441.68 381.204 1442.6 381.759 1443.34 382.506C1444.1 383.256 1444.68 384.193 1445.08 385.326C1445.48 386.456 1445.68 387.788 1445.68 389.319V408.251H1442.2ZM1441.78 395.747H1436.86C1435.89 395.747 1435.06 395.866 1434.36 396.105C1433.66 396.342 1433.09 396.678 1432.65 397.117C1432.2 397.553 1431.87 398.082 1431.64 398.705C1431.44 399.305 1431.33 399.99 1431.33 400.756C1431.33 401.285 1431.4 401.795 1431.53 402.287C1431.67 402.76 1431.88 403.19 1432.18 403.573C1432.48 403.937 1432.86 404.23 1433.34 404.448C1433.81 404.669 1434.39 404.778 1435.08 404.778C1435.97 404.778 1436.98 404.448 1438.13 403.791C1439.29 403.118 1440.51 402.06 1441.78 400.619V395.747ZM1470.95 407.869C1470.07 408.142 1469.16 408.332 1468.23 408.444C1467.29 408.572 1466.34 408.634 1465.38 408.634C1462.57 408.634 1460.47 407.859 1459.09 406.309C1457.71 404.74 1457.02 402.343 1457.02 399.112V384.778H1450.76V380.784H1457.02V373.233L1460.9 372V380.784H1470.95V384.778H1460.9V398.729C1460.9 400.7 1461.32 402.178 1462.17 403.162C1463.03 404.13 1464.29 404.613 1465.96 404.613C1466.67 404.613 1467.45 404.55 1468.29 404.423C1469.14 404.276 1470.03 404.055 1470.95 403.766V407.869ZM1496.9 393.067C1496.9 393.743 1496.9 394.309 1496.88 394.764C1496.87 395.218 1496.84 395.648 1496.81 396.049H1481.11C1481.11 398.857 1481.75 401.02 1483.02 402.533C1484.3 404.03 1486.14 404.778 1488.55 404.778C1489.2 404.778 1489.85 404.75 1490.51 404.693C1491.16 404.622 1491.79 404.532 1492.4 404.423C1493.01 404.311 1493.59 404.192 1494.14 404.065C1494.7 403.918 1495.22 403.766 1495.7 403.601V407.514C1494.65 407.878 1493.45 408.17 1492.11 408.388C1490.79 408.625 1489.42 408.743 1487.99 408.743C1486.08 408.743 1484.43 408.426 1483.05 407.788C1481.66 407.149 1480.53 406.228 1479.64 405.023C1478.76 403.8 1478.11 402.315 1477.68 400.563C1477.26 398.795 1477.05 396.796 1477.05 394.571C1477.05 392.638 1477.27 390.814 1477.72 389.102C1478.18 387.368 1478.84 385.855 1479.7 384.56C1480.58 383.246 1481.65 382.207 1482.91 381.441C1484.17 380.675 1485.61 380.292 1487.21 380.292C1488.77 380.292 1490.15 380.591 1491.36 381.195C1492.56 381.796 1493.57 382.652 1494.38 383.766C1495.22 384.859 1495.84 386.201 1496.26 387.788C1496.69 389.357 1496.9 391.116 1496.9 393.067ZM1492.87 392.382C1492.91 391.162 1492.82 390.048 1492.58 389.046C1492.34 388.025 1491.97 387.15 1491.47 386.418C1490.98 385.69 1490.36 385.123 1489.62 384.722C1488.88 384.305 1488.01 384.093 1487.03 384.093C1486.19 384.093 1485.41 384.295 1484.72 384.697C1484.02 385.099 1483.42 385.662 1482.91 386.393C1482.41 387.122 1482 387.997 1481.69 389.018C1481.38 390.039 1481.18 391.162 1481.11 392.382H1492.87ZM1544.14 408.251V388.526C1544.14 387.67 1544.11 386.966 1544.05 386.418C1544.01 385.874 1543.92 385.444 1543.81 385.133C1543.7 384.806 1543.56 384.579 1543.38 384.451C1543.22 384.32 1543.01 384.258 1542.76 384.258C1542.46 384.258 1542.19 384.367 1541.93 384.585C1541.68 384.806 1541.4 385.161 1541.11 385.653C1540.83 386.144 1540.51 386.801 1540.15 387.623C1539.81 388.426 1539.4 389.419 1538.93 390.605V408.251H1535.38V389.046C1535.38 388.043 1535.35 387.231 1535.29 386.611C1535.25 385.992 1535.17 385.506 1535.05 385.161C1534.94 384.815 1534.8 384.579 1534.62 384.451C1534.45 384.32 1534.23 384.258 1533.98 384.258C1533.71 384.258 1533.46 384.348 1533.22 384.532C1532.98 384.713 1532.72 385.043 1532.42 385.516C1532.14 385.992 1531.82 386.639 1531.46 387.458C1531.1 388.28 1530.68 389.329 1530.19 390.605V408.251H1526.63V380.784H1529.59L1529.77 386.007C1530.15 384.971 1530.52 384.084 1530.88 383.355C1531.25 382.627 1531.63 382.042 1532.02 381.603C1532.4 381.148 1532.81 380.822 1533.24 380.619C1533.69 380.401 1534.18 380.292 1534.71 380.292C1535.92 380.292 1536.83 380.775 1537.45 381.74C1538.08 382.708 1538.39 384.202 1538.39 386.229C1538.75 385.279 1539.1 384.442 1539.44 383.71C1539.78 382.963 1540.14 382.344 1540.53 381.852C1540.93 381.338 1541.37 380.955 1541.84 380.7C1542.32 380.429 1542.87 380.292 1543.49 380.292C1546.3 380.292 1547.7 382.945 1547.7 388.252V408.251H1544.14ZM1567.64 408.251L1567.56 404.557C1566.34 406.035 1565.1 407.103 1563.83 407.76C1562.59 408.416 1561.27 408.743 1559.89 408.743C1558.61 408.743 1557.52 408.544 1556.61 408.142C1555.71 407.741 1554.96 407.193 1554.37 406.502C1553.79 405.789 1553.35 404.958 1553.07 404.012C1552.8 403.062 1552.67 402.032 1552.67 400.921C1552.67 398.166 1553.5 396.012 1555.17 394.462C1556.85 392.893 1559.32 392.109 1562.59 392.109H1567.22V389.702C1567.22 388.081 1566.8 386.786 1565.95 385.818C1565.1 384.834 1563.81 384.339 1562.07 384.339C1560.81 384.339 1559.56 384.513 1558.33 384.859C1557.11 385.208 1555.85 385.699 1554.54 386.337V382.042C1555.03 381.824 1555.58 381.612 1556.17 381.413C1556.78 381.195 1557.42 381.002 1558.08 380.837C1558.75 380.675 1559.45 380.548 1560.18 380.454C1560.91 380.345 1561.64 380.292 1562.39 380.292C1563.74 380.292 1564.95 380.473 1566.04 380.837C1567.12 381.204 1568.04 381.759 1568.78 382.506C1569.54 383.256 1570.12 384.193 1570.52 385.326C1570.92 386.456 1571.12 387.788 1571.12 389.319V408.251H1567.64ZM1567.22 395.747H1562.3C1561.33 395.747 1560.5 395.866 1559.8 396.105C1559.1 396.342 1558.53 396.678 1558.08 397.117C1557.64 397.553 1557.31 398.082 1557.08 398.705C1556.88 399.305 1556.77 399.99 1556.77 400.756C1556.77 401.285 1556.84 401.795 1556.97 402.287C1557.11 402.76 1557.32 403.19 1557.62 403.573C1557.92 403.937 1558.3 404.23 1558.78 404.448C1559.25 404.669 1559.83 404.778 1560.51 404.778C1561.41 404.778 1562.42 404.448 1563.57 403.791C1564.72 403.118 1565.94 402.06 1567.22 400.619V395.747ZM1578.36 380.784H1581.82L1581.97 385.217C1582.62 384.267 1583.26 383.483 1583.86 382.864C1584.47 382.225 1585.07 381.715 1585.65 381.332C1586.24 380.949 1586.84 380.685 1587.45 380.538C1588.06 380.373 1588.69 380.292 1589.34 380.292C1591.65 380.292 1593.39 381.13 1594.56 382.808C1595.75 384.467 1596.34 386.976 1596.34 390.331V408.251H1592.46V390.714C1592.46 388.563 1592.14 386.976 1591.48 385.955C1590.83 384.915 1589.86 384.395 1588.57 384.395C1588.09 384.395 1587.62 384.485 1587.16 384.669C1586.72 384.834 1586.25 385.133 1585.76 385.572C1585.27 385.992 1584.73 386.565 1584.15 387.296C1583.59 388.025 1582.95 388.937 1582.24 390.029V408.251H1578.36V380.784ZM1617.82 408.251L1617.73 404.557C1616.51 406.035 1615.27 407.103 1614.01 407.76C1612.76 408.416 1611.45 408.743 1610.07 408.743C1608.79 408.743 1607.7 408.544 1606.79 408.142C1605.89 407.741 1605.13 407.193 1604.54 406.502C1603.96 405.789 1603.53 404.958 1603.25 404.012C1602.98 403.062 1602.85 402.032 1602.85 400.921C1602.85 398.166 1603.68 396.012 1605.34 394.462C1607.02 392.893 1609.5 392.109 1612.76 392.109H1617.4V389.702C1617.4 388.081 1616.97 386.786 1616.13 385.818C1615.28 384.834 1613.99 384.339 1612.25 384.339C1610.99 384.339 1609.74 384.513 1608.51 384.859C1607.29 385.208 1606.02 385.699 1604.72 386.337V382.042C1605.21 381.824 1605.75 381.612 1606.34 381.413C1606.96 381.195 1607.59 381.002 1608.26 380.837C1608.93 380.675 1609.63 380.548 1610.35 380.454C1611.08 380.345 1611.82 380.292 1612.56 380.292C1613.91 380.292 1615.13 380.473 1616.22 380.837C1617.3 381.204 1618.21 381.759 1618.96 382.506C1619.71 383.256 1620.29 384.193 1620.69 385.326C1621.1 386.456 1621.3 387.788 1621.3 389.319V408.251H1617.82ZM1617.4 395.747H1612.47C1611.51 395.747 1610.67 395.866 1609.98 396.105C1609.28 396.342 1608.71 396.678 1608.26 397.117C1607.82 397.553 1607.48 398.082 1607.26 398.705C1607.05 399.305 1606.95 399.99 1606.95 400.756C1606.95 401.285 1607.01 401.795 1607.15 402.287C1607.28 402.76 1607.5 403.19 1607.79 403.573C1608.09 403.937 1608.48 404.23 1608.95 404.448C1609.43 404.669 1610.01 404.778 1610.69 404.778C1611.58 404.778 1612.6 404.448 1613.74 403.791C1614.9 403.118 1616.12 402.06 1617.4 400.619V395.747ZM1644.65 384.669C1645.06 385.307 1645.38 386.054 1645.6 386.913C1645.84 387.751 1645.96 388.663 1645.96 389.646C1645.96 391.069 1645.74 392.373 1645.31 393.559C1644.9 394.726 1644.3 395.732 1643.53 396.569C1642.76 397.41 1641.83 398.066 1640.75 398.54C1639.68 398.994 1638.5 399.224 1637.2 399.224C1636.27 399.224 1635.39 399.106 1634.57 398.866C1633.76 398.611 1633.11 398.303 1632.64 397.939C1632.35 398.449 1632.12 398.932 1631.92 399.386C1631.73 399.844 1631.63 400.354 1631.63 400.921C1631.63 401.612 1631.9 402.188 1632.43 402.642C1632.98 403.1 1633.7 403.346 1634.6 403.383L1640.48 403.654C1641.59 403.691 1642.62 403.866 1643.55 404.174C1644.5 404.485 1645.31 404.933 1645.98 405.515C1646.67 406.1 1647.19 406.82 1647.56 407.676C1647.95 408.535 1648.14 409.528 1648.14 410.658C1648.14 411.881 1647.93 413.039 1647.5 414.135C1647.07 415.227 1646.4 416.186 1645.49 417.005C1644.6 417.845 1643.46 418.511 1642.08 419.003C1640.7 419.495 1639.06 419.741 1637.16 419.741C1635.35 419.741 1633.8 419.56 1632.53 419.196C1631.26 418.847 1630.22 418.355 1629.41 417.717C1628.59 417.098 1627.99 416.351 1627.62 415.473C1627.25 414.617 1627.07 413.668 1627.07 412.628C1627.07 411.299 1627.32 410.132 1627.82 409.126C1628.33 408.124 1629.11 407.156 1630.16 406.228C1629.78 406.007 1629.44 405.733 1629.16 405.406C1628.88 405.076 1628.65 404.721 1628.47 404.339C1628.29 403.937 1628.16 403.517 1628.07 403.081C1627.98 402.642 1627.93 402.216 1627.93 401.796C1627.93 400.61 1628.16 399.523 1628.6 398.54C1629.06 397.553 1629.61 396.625 1630.23 395.747C1629.95 395.33 1629.69 394.919 1629.47 394.518C1629.26 394.116 1629.08 393.687 1628.92 393.232C1628.77 392.756 1628.65 392.255 1628.56 391.726C1628.48 391.181 1628.45 390.558 1628.45 389.867C1628.45 388.445 1628.65 387.15 1629.07 385.983C1629.5 384.797 1630.1 383.785 1630.85 382.945C1631.63 382.107 1632.55 381.46 1633.62 381.002C1634.7 380.529 1635.9 380.292 1637.2 380.292C1637.75 380.292 1638.28 380.336 1638.78 380.429C1639.29 380.52 1639.74 380.638 1640.12 380.784H1648.23V384.669H1644.65ZM1631.19 412.217C1631.19 413.512 1631.74 414.452 1632.84 415.037C1633.94 415.638 1635.47 415.94 1637.43 415.94C1638.66 415.94 1639.69 415.803 1640.52 415.529C1641.37 415.255 1642.04 414.891 1642.55 414.433C1643.07 413.998 1643.44 413.487 1643.66 412.902C1643.89 412.335 1644 411.753 1644 411.152C1644 410.038 1643.63 409.219 1642.89 408.69C1642.14 408.161 1641.01 407.85 1639.48 407.76L1633.64 407.514C1633.15 407.915 1632.74 408.307 1632.41 408.69C1632.1 409.073 1631.86 409.456 1631.68 409.839C1631.5 410.24 1631.37 410.633 1631.3 411.016C1631.23 411.417 1631.19 411.819 1631.19 412.217ZM1632.37 389.758C1632.37 390.633 1632.49 391.436 1632.73 392.165C1632.96 392.893 1633.3 393.516 1633.73 394.026C1634.16 394.537 1634.66 394.938 1635.24 395.228C1635.84 395.501 1636.49 395.638 1637.2 395.638C1637.98 395.638 1638.66 395.483 1639.25 395.175C1639.86 394.845 1640.37 394.409 1640.77 393.861C1641.19 393.313 1641.5 392.684 1641.71 391.975C1641.93 391.262 1642.04 390.524 1642.04 389.758C1642.04 388.881 1641.92 388.081 1641.68 387.349C1641.44 386.621 1641.11 386.001 1640.68 385.491C1640.25 384.977 1639.74 384.585 1639.14 384.314C1638.56 384.022 1637.92 383.875 1637.2 383.875C1636.43 383.875 1635.74 384.04 1635.13 384.367C1634.54 384.697 1634.03 385.133 1633.62 385.681C1633.22 386.21 1632.9 386.829 1632.68 387.542C1632.47 388.252 1632.37 388.99 1632.37 389.758ZM1672.52 393.067C1672.52 393.743 1672.51 394.309 1672.5 394.764C1672.48 395.218 1672.46 395.648 1672.43 396.049H1656.72C1656.72 398.857 1657.36 401.02 1658.64 402.533C1659.91 404.03 1661.76 404.778 1664.16 404.778C1664.82 404.778 1665.47 404.75 1666.12 404.693C1666.78 404.622 1667.41 404.532 1668.02 404.423C1668.63 404.311 1669.2 404.192 1669.76 404.065C1670.32 403.918 1670.84 403.766 1671.31 403.601V407.514C1670.26 407.878 1669.07 408.17 1667.73 408.388C1666.41 408.625 1665.03 408.743 1663.61 408.743C1661.69 408.743 1660.04 408.426 1658.66 407.788C1657.28 407.149 1656.14 406.228 1655.25 405.023C1654.38 403.8 1653.72 402.315 1653.29 400.563C1652.87 398.795 1652.67 396.796 1652.67 394.571C1652.67 392.638 1652.89 390.814 1653.34 389.102C1653.79 387.368 1654.46 385.855 1655.32 384.56C1656.2 383.246 1657.26 382.207 1658.52 381.441C1659.79 380.675 1661.22 380.292 1662.83 380.292C1664.39 380.292 1665.77 380.591 1666.97 381.195C1668.17 381.796 1669.18 382.652 1670 383.766C1670.83 384.859 1671.46 386.201 1671.87 387.788C1672.3 389.357 1672.52 391.116 1672.52 393.067ZM1668.49 392.382C1668.53 391.162 1668.43 390.048 1668.2 389.046C1667.96 388.025 1667.59 387.15 1667.08 386.418C1666.59 385.69 1665.98 385.123 1665.23 384.722C1664.49 384.305 1663.63 384.093 1662.65 384.093C1661.8 384.093 1661.03 384.295 1660.33 384.697C1659.63 385.099 1659.03 385.662 1658.52 386.393C1658.02 387.122 1657.61 387.997 1657.3 389.018C1656.99 390.039 1656.8 391.162 1656.72 392.382H1668.49ZM1694.66 408.251V388.526C1694.66 387.67 1694.64 386.966 1694.58 386.418C1694.53 385.874 1694.45 385.444 1694.33 385.133C1694.23 384.806 1694.09 384.579 1693.91 384.451C1693.74 384.32 1693.54 384.258 1693.28 384.258C1692.99 384.258 1692.71 384.367 1692.46 384.585C1692.21 384.806 1691.93 385.161 1691.63 385.653C1691.35 386.144 1691.03 386.801 1690.68 387.623C1690.33 388.426 1689.93 389.419 1689.45 390.605V408.251H1685.91V389.046C1685.91 388.043 1685.88 387.231 1685.82 386.611C1685.77 385.992 1685.69 385.506 1685.57 385.161C1685.47 384.815 1685.33 384.579 1685.15 384.451C1684.97 384.32 1684.76 384.258 1684.5 384.258C1684.24 384.258 1683.98 384.348 1683.75 384.532C1683.51 384.713 1683.24 385.043 1682.94 385.516C1682.66 385.992 1682.34 386.639 1681.99 387.458C1681.63 388.28 1681.21 389.329 1680.72 390.605V408.251H1677.15V380.784H1680.12L1680.29 386.007C1680.68 384.971 1681.05 384.084 1681.41 383.355C1681.78 382.627 1682.16 382.042 1682.54 381.603C1682.93 381.148 1683.34 380.822 1683.77 380.619C1684.21 380.401 1684.71 380.292 1685.24 380.292C1686.44 380.292 1687.36 380.775 1687.98 381.74C1688.61 382.708 1688.92 384.202 1688.92 386.229C1689.27 385.279 1689.62 384.442 1689.96 383.71C1690.31 382.963 1690.67 382.344 1691.05 381.852C1691.46 381.338 1691.9 380.955 1692.37 380.7C1692.85 380.429 1693.39 380.292 1694.02 380.292C1696.83 380.292 1698.23 382.945 1698.23 388.252V408.251H1694.66ZM1722.69 393.067C1722.69 393.743 1722.69 394.309 1722.67 394.764C1722.66 395.218 1722.63 395.648 1722.61 396.049H1706.9C1706.9 398.857 1707.53 401.02 1708.81 402.533C1710.09 404.03 1711.93 404.778 1714.34 404.778C1714.99 404.778 1715.65 404.75 1716.3 404.693C1716.95 404.622 1717.58 404.532 1718.19 404.423C1718.8 404.311 1719.38 404.192 1719.93 404.065C1720.5 403.918 1721.02 403.766 1721.49 403.601V407.514C1720.44 407.878 1719.24 408.17 1717.9 408.388C1716.58 408.625 1715.21 408.743 1713.78 408.743C1711.86 408.743 1710.22 408.426 1708.83 407.788C1707.45 407.149 1706.32 406.228 1705.43 405.023C1704.55 403.8 1703.9 402.315 1703.47 400.563C1703.05 398.795 1702.84 396.796 1702.84 394.571C1702.84 392.638 1703.07 390.814 1703.51 389.102C1703.97 387.368 1704.63 385.855 1705.49 384.56C1706.37 383.246 1707.44 382.207 1708.7 381.441C1709.96 380.675 1711.4 380.292 1713 380.292C1714.56 380.292 1715.94 380.591 1717.14 381.195C1718.35 381.796 1719.36 382.652 1720.18 383.766C1721.01 384.859 1721.63 386.201 1722.05 387.788C1722.48 389.357 1722.69 391.116 1722.69 393.067ZM1718.66 392.382C1718.71 391.162 1718.61 390.048 1718.37 389.046C1718.13 388.025 1717.76 387.15 1717.26 386.418C1716.77 385.69 1716.15 385.123 1715.41 384.722C1714.67 384.305 1713.8 384.093 1712.82 384.093C1711.98 384.093 1711.21 384.295 1710.51 384.697C1709.81 385.099 1709.21 385.662 1708.7 386.393C1708.2 387.122 1707.79 387.997 1707.48 389.018C1707.16 390.039 1706.97 391.162 1706.9 392.382H1718.66ZM1728.89 380.784H1732.34L1732.5 385.217C1733.15 384.267 1733.78 383.483 1734.39 382.864C1735 382.225 1735.59 381.715 1736.17 381.332C1736.77 380.949 1737.37 380.685 1737.98 380.538C1738.59 380.373 1739.22 380.292 1739.87 380.292C1742.17 380.292 1743.91 381.13 1745.09 382.808C1746.27 384.467 1746.87 386.976 1746.87 390.331V408.251H1742.99V390.714C1742.99 388.563 1742.66 386.976 1742.01 385.955C1741.36 384.915 1740.38 384.395 1739.09 384.395C1738.62 384.395 1738.15 384.485 1737.69 384.669C1737.24 384.834 1736.78 385.133 1736.28 385.572C1735.79 385.992 1735.26 386.565 1734.68 387.296C1734.12 388.025 1733.48 388.937 1732.77 390.029V408.251H1728.89V380.784ZM1772 407.869C1771.12 408.142 1770.22 408.332 1769.28 408.444C1768.35 408.572 1767.4 408.634 1766.43 408.634C1763.62 408.634 1761.53 407.859 1760.15 406.309C1758.76 404.74 1758.08 402.343 1758.08 399.112V384.778H1751.81V380.784H1758.08V373.233L1761.95 372V380.784H1772V384.778H1761.95V398.729C1761.95 400.7 1762.37 402.178 1763.22 403.162C1764.08 404.13 1765.35 404.613 1767.01 404.613C1767.72 404.613 1768.5 404.55 1769.35 404.423C1770.2 404.276 1771.08 404.055 1772 403.766V407.869ZM1360.19 438.875H1353.57V434.962H1364.11V469.654H1370.77V473.62H1352.84V469.654H1360.19V438.875ZM1385.28 450.09H1378.66V446.153H1389.2V469.654H1395.86V473.62H1377.93V469.654H1385.28V450.09ZM1386.64 434.635C1387.07 434.635 1387.47 434.735 1387.84 434.934C1388.21 435.118 1388.53 435.382 1388.8 435.728C1389.08 436.073 1389.3 436.475 1389.45 436.932C1389.61 437.368 1389.69 437.854 1389.69 438.383C1389.69 438.894 1389.61 439.376 1389.45 439.834C1389.3 440.288 1389.08 440.69 1388.8 441.035C1388.53 441.384 1388.21 441.655 1387.84 441.857C1387.47 442.037 1387.07 442.131 1386.64 442.131C1386.21 442.131 1385.8 442.037 1385.43 441.857C1385.06 441.655 1384.74 441.384 1384.45 441.035C1384.19 440.69 1383.97 440.288 1383.81 439.834C1383.66 439.376 1383.58 438.894 1383.58 438.383C1383.58 437.854 1383.66 437.368 1383.81 436.932C1383.97 436.475 1384.19 436.073 1384.45 435.728C1384.74 435.382 1385.06 435.118 1385.43 434.934C1385.8 434.735 1386.21 434.635 1386.64 434.635ZM1421.86 459.394C1421.86 461.673 1421.6 463.715 1421.08 465.52C1420.58 467.31 1419.85 468.832 1418.9 470.09C1417.96 471.332 1416.82 472.287 1415.47 472.963C1414.12 473.62 1412.59 473.947 1410.9 473.947C1409.58 473.947 1408.23 473.794 1406.85 473.483C1405.46 473.171 1404.1 472.68 1402.75 472.004V434.962H1406.62V445.605L1406.45 450.694C1407.56 448.851 1408.75 447.556 1410.01 446.809C1411.29 446.044 1412.65 445.661 1414.11 445.661C1415.39 445.661 1416.51 445.988 1417.47 446.644C1418.44 447.301 1419.25 448.232 1419.9 449.433C1420.55 450.619 1421.05 452.061 1421.37 453.757C1421.7 455.435 1421.86 457.315 1421.86 459.394ZM1417.9 459.612C1417.9 458.171 1417.81 456.848 1417.63 455.647C1417.47 454.442 1417.2 453.412 1416.83 452.552C1416.46 451.696 1415.98 451.03 1415.4 450.557C1414.82 450.065 1414.13 449.819 1413.33 449.819C1412.84 449.819 1412.34 449.919 1411.84 450.118C1411.33 450.302 1410.81 450.619 1410.26 451.077C1409.72 451.513 1409.15 452.107 1408.54 452.854C1407.95 453.583 1407.31 454.495 1406.62 455.59V468.913C1407.38 469.277 1408.15 469.57 1408.94 469.791C1409.73 469.99 1410.48 470.09 1411.19 470.09C1412.08 470.09 1412.93 469.919 1413.73 469.57C1414.55 469.224 1415.26 468.649 1415.87 467.849C1416.49 467.027 1416.98 465.95 1417.34 464.618C1417.71 463.27 1417.9 461.601 1417.9 459.612ZM1428.75 446.153H1432.29L1432.4 451.214C1433.72 449.262 1435.02 447.849 1436.3 446.971C1437.59 446.097 1438.89 445.661 1440.2 445.661C1442.52 445.661 1444.27 446.579 1445.46 448.422C1446.66 450.265 1447.22 453.001 1447.13 456.63H1443.21C1443.25 454.224 1442.96 452.481 1442.34 451.404C1441.73 450.311 1440.83 449.763 1439.64 449.763C1439.12 449.763 1438.6 449.882 1438.06 450.118C1437.54 450.339 1437 450.703 1436.43 451.214C1435.88 451.706 1435.3 452.344 1434.67 453.128C1434.05 453.913 1433.38 454.862 1432.67 455.973V473.62H1428.75V446.153ZM1467.29 473.62L1467.2 469.925C1465.99 471.403 1464.75 472.471 1463.48 473.128C1462.24 473.785 1460.92 474.112 1459.54 474.112C1458.26 474.112 1457.17 473.912 1456.26 473.511C1455.36 473.109 1454.61 472.561 1454.01 471.87C1453.43 471.157 1453 470.326 1452.72 469.38C1452.45 468.431 1452.32 467.4 1452.32 466.289C1452.32 463.534 1453.15 461.38 1454.82 459.83C1456.49 458.261 1458.97 457.477 1462.24 457.477H1466.87V455.071C1466.87 453.449 1466.45 452.154 1465.6 451.186C1464.75 450.202 1463.46 449.707 1461.72 449.707C1460.46 449.707 1459.21 449.882 1457.98 450.227C1456.76 450.576 1455.5 451.068 1454.19 451.706V447.41C1454.68 447.192 1455.22 446.981 1455.82 446.781C1456.43 446.563 1457.07 446.37 1457.73 446.205C1458.4 446.044 1459.1 445.916 1459.83 445.823C1460.56 445.714 1461.29 445.661 1462.04 445.661C1463.39 445.661 1464.6 445.841 1465.69 446.205C1466.77 446.573 1467.69 447.127 1468.43 447.874C1469.19 448.624 1469.76 449.561 1470.17 450.694C1470.57 451.824 1470.77 453.156 1470.77 454.688V473.62H1467.29ZM1466.87 461.116H1461.95C1460.98 461.116 1460.15 461.234 1459.45 461.474C1458.75 461.71 1458.18 462.046 1457.73 462.485C1457.29 462.921 1456.96 463.45 1456.73 464.073C1456.52 464.674 1456.42 465.358 1456.42 466.124C1456.42 466.653 1456.49 467.164 1456.62 467.656C1456.76 468.129 1456.97 468.558 1457.27 468.941C1457.56 469.305 1457.95 469.598 1458.43 469.816C1458.9 470.037 1459.48 470.146 1460.16 470.146C1461.05 470.146 1462.07 469.816 1463.21 469.159C1464.38 468.487 1465.59 467.428 1466.87 465.987V461.116ZM1478.92 446.153H1482.47L1482.58 451.214C1483.9 449.262 1485.2 447.849 1486.48 446.971C1487.77 446.097 1489.07 445.661 1490.37 445.661C1492.69 445.661 1494.45 446.579 1495.63 448.422C1496.84 450.265 1497.39 453.001 1497.31 456.63H1493.38C1493.43 454.224 1493.14 452.481 1492.51 451.404C1491.91 450.311 1491.01 449.763 1489.82 449.763C1489.3 449.763 1488.77 449.882 1488.24 450.118C1487.72 450.339 1487.18 450.703 1486.61 451.214C1486.06 451.706 1485.47 452.344 1484.85 453.128C1484.23 453.913 1483.56 454.862 1482.85 455.973V473.62H1478.92V446.153ZM1523 446.153L1515.37 470.719C1514.59 473.218 1513.77 475.369 1512.92 477.178C1512.09 478.983 1511.18 480.458 1510.18 481.607C1509.19 482.774 1508.1 483.633 1506.91 484.181C1505.72 484.726 1504.39 485 1502.92 485C1502.53 485 1502.19 484.991 1501.87 484.972C1501.56 484.956 1501.22 484.928 1500.85 484.891V480.567C1501.17 480.623 1501.53 480.67 1501.92 480.704C1502.3 480.76 1502.71 480.788 1503.14 480.788C1503.86 480.788 1504.51 480.661 1505.13 480.406C1505.75 480.15 1506.33 479.73 1506.89 479.145C1507.44 478.581 1507.96 477.841 1508.47 476.929C1508.97 476.02 1509.46 474.915 1509.94 473.62L1501 446.153H1505.41L1511.07 464.319L1512.21 468.586L1513.5 464.21L1518.74 446.153H1523ZM1573.13 439.395C1571.09 438.866 1569.34 438.601 1567.87 438.601C1564.38 438.601 1562.63 440.845 1562.63 445.331V450.146H1572.43V454.112H1562.63V473.62H1558.69V454.112H1551.49V450.146H1558.69V445.605C1558.69 438.29 1561.79 434.635 1568 434.635C1569.55 434.635 1571.25 434.853 1573.13 435.292V439.395ZM1597.83 459.668C1597.83 461.8 1597.59 463.762 1597.1 465.548C1596.61 467.319 1595.9 468.842 1594.98 470.118C1594.06 471.375 1592.94 472.362 1591.62 473.072C1590.29 473.766 1588.8 474.112 1587.12 474.112C1585.51 474.112 1584.07 473.813 1582.79 473.209C1581.53 472.589 1580.46 471.687 1579.56 470.501C1578.69 469.315 1578.01 467.849 1577.54 466.096C1577.08 464.347 1576.85 462.33 1576.85 460.051C1576.85 457.916 1577.09 455.973 1577.58 454.224C1578.07 452.453 1578.78 450.94 1579.7 449.682C1580.62 448.403 1581.74 447.419 1583.06 446.725C1584.38 446.016 1585.88 445.661 1587.56 445.661C1589.17 445.661 1590.6 445.969 1591.86 446.588C1593.14 447.192 1594.22 448.086 1595.09 449.272C1595.99 450.439 1596.66 451.896 1597.12 453.648C1597.6 455.397 1597.83 457.405 1597.83 459.668ZM1593.87 459.886C1593.87 458.19 1593.71 456.711 1593.4 455.454C1593.1 454.177 1592.67 453.119 1592.11 452.282C1591.54 451.422 1590.85 450.784 1590.04 450.364C1589.23 449.928 1588.34 449.707 1587.34 449.707C1586.18 449.707 1585.19 449.991 1584.36 450.557C1583.54 451.105 1582.86 451.843 1582.33 452.773C1581.81 453.704 1581.42 454.787 1581.17 456.029C1580.93 457.25 1580.81 458.535 1580.81 459.886C1580.81 461.583 1580.96 463.067 1581.26 464.347C1581.57 465.623 1582.01 466.688 1582.57 467.547C1583.14 468.384 1583.82 469.022 1584.62 469.461C1585.43 469.881 1586.33 470.09 1587.34 470.09C1588.5 470.09 1589.49 469.816 1590.3 469.271C1591.13 468.705 1591.81 467.958 1592.33 467.027C1592.87 466.096 1593.25 465.019 1593.49 463.799C1593.74 462.557 1593.87 461.253 1593.87 459.886ZM1604.36 446.153H1607.91L1608.02 451.214C1609.34 449.262 1610.64 447.849 1611.92 446.971C1613.21 446.097 1614.51 445.661 1615.81 445.661C1618.13 445.661 1619.88 446.579 1621.07 448.422C1622.28 450.265 1622.83 453.001 1622.74 456.63H1618.82C1618.87 454.224 1618.58 452.481 1617.95 451.404C1617.34 450.311 1616.45 449.763 1615.26 449.763C1614.74 449.763 1614.21 449.882 1613.68 450.118C1613.16 450.339 1612.61 450.703 1612.05 451.214C1611.5 451.706 1610.91 452.344 1610.29 453.128C1609.66 453.913 1609 454.862 1608.28 455.973V473.62H1604.36V446.153ZM1654.54 446.153H1658.08L1658.19 451.214C1659.51 449.262 1660.81 447.849 1662.09 446.971C1663.38 446.097 1664.68 445.661 1665.99 445.661C1668.31 445.661 1670.06 446.579 1671.25 448.422C1672.45 450.265 1673.01 453.001 1672.92 456.63H1669C1669.04 454.224 1668.75 452.481 1668.13 451.404C1667.52 450.311 1666.62 449.763 1665.43 449.763C1664.91 449.763 1664.39 449.882 1663.85 450.118C1663.33 450.339 1662.79 450.703 1662.22 451.214C1661.68 451.706 1661.09 452.344 1660.46 453.128C1659.84 453.913 1659.17 454.862 1658.46 455.973V473.62H1654.54V446.153ZM1697.6 458.436C1697.6 459.111 1697.6 459.678 1697.58 460.132C1697.57 460.587 1697.55 461.016 1697.52 461.418H1681.81C1681.81 464.225 1682.45 466.389 1683.73 467.901C1685 469.399 1686.84 470.146 1689.25 470.146C1689.9 470.146 1690.56 470.118 1691.21 470.062C1691.87 469.99 1692.5 469.9 1693.11 469.791C1693.71 469.679 1694.29 469.561 1694.84 469.433C1695.41 469.287 1695.93 469.134 1696.4 468.969V472.882C1695.35 473.246 1694.15 473.539 1692.82 473.757C1691.49 473.993 1690.12 474.112 1688.69 474.112C1686.78 474.112 1685.13 473.794 1683.75 473.156C1682.37 472.518 1681.23 471.596 1680.34 470.392C1679.46 469.168 1678.81 467.684 1678.38 465.931C1677.96 464.163 1677.75 462.165 1677.75 459.939C1677.75 458.006 1677.98 456.182 1678.42 454.47C1678.88 452.736 1679.54 451.223 1680.4 449.928C1681.28 448.615 1682.35 447.575 1683.61 446.809C1684.88 446.044 1686.31 445.661 1687.91 445.661C1689.47 445.661 1690.85 445.96 1692.06 446.563C1693.26 447.164 1694.27 448.02 1695.09 449.135C1695.92 450.227 1696.54 451.569 1696.96 453.156C1697.39 454.725 1697.6 456.484 1697.6 458.436ZM1693.57 457.751C1693.62 456.531 1693.52 455.416 1693.28 454.414C1693.05 453.393 1692.67 452.518 1692.17 451.787C1691.68 451.058 1691.06 450.492 1690.32 450.09C1689.58 449.673 1688.72 449.461 1687.74 449.461C1686.89 449.461 1686.12 449.664 1685.42 450.065C1684.72 450.467 1684.12 451.03 1683.61 451.762C1683.11 452.49 1682.7 453.365 1682.39 454.386C1682.08 455.407 1681.88 456.531 1681.81 457.751H1693.57ZM1718.17 473.62L1718.08 469.925C1716.86 471.403 1715.62 472.471 1714.36 473.128C1713.11 473.785 1711.8 474.112 1710.42 474.112C1709.14 474.112 1708.05 473.912 1707.14 473.511C1706.24 473.109 1705.49 472.561 1704.89 471.87C1704.31 471.157 1703.88 470.326 1703.6 469.38C1703.33 468.431 1703.2 467.4 1703.2 466.289C1703.2 463.534 1704.03 461.38 1705.69 459.83C1707.37 458.261 1709.85 457.477 1713.11 457.477H1717.75V455.071C1717.75 453.449 1717.32 452.154 1716.48 451.186C1715.63 450.202 1714.34 449.707 1712.6 449.707C1711.34 449.707 1710.09 449.882 1708.86 450.227C1707.64 450.576 1706.38 451.068 1705.07 451.706V447.41C1705.56 447.192 1706.1 446.981 1706.7 446.781C1707.31 446.563 1707.95 446.37 1708.61 446.205C1709.28 446.044 1709.98 445.916 1710.71 445.823C1711.44 445.714 1712.17 445.661 1712.91 445.661C1714.26 445.661 1715.48 445.841 1716.57 446.205C1717.65 446.573 1718.56 447.127 1719.31 447.874C1720.07 448.624 1720.64 449.561 1721.05 450.694C1721.45 451.824 1721.65 453.156 1721.65 454.688V473.62H1718.17ZM1717.75 461.116H1712.82C1711.86 461.116 1711.03 461.234 1710.33 461.474C1709.63 461.71 1709.06 462.046 1708.61 462.485C1708.17 462.921 1707.83 463.45 1707.61 464.073C1707.4 464.674 1707.3 465.358 1707.3 466.124C1707.3 466.653 1707.36 467.164 1707.5 467.656C1707.63 468.129 1707.85 468.558 1708.15 468.941C1708.44 469.305 1708.83 469.598 1709.3 469.816C1709.78 470.037 1710.36 470.146 1711.04 470.146C1711.93 470.146 1712.95 469.816 1714.09 469.159C1715.25 468.487 1716.47 467.428 1717.75 465.987V461.116ZM1746.27 472.608C1745.26 473.081 1744.22 473.427 1743.15 473.648C1742.09 473.884 1741 474.003 1739.87 474.003C1736.34 474.003 1733.61 472.826 1731.7 470.473C1729.79 468.119 1728.84 464.683 1728.84 460.16C1728.84 457.99 1729.12 456.02 1729.67 454.249C1730.22 452.481 1730.99 450.968 1731.98 449.707C1732.98 448.45 1734.17 447.485 1735.55 446.809C1736.93 446.115 1738.45 445.77 1740.12 445.77C1741.28 445.77 1742.36 445.869 1743.37 446.069C1744.38 446.271 1745.34 446.598 1746.27 447.055V451.597C1745.3 450.977 1744.31 450.529 1743.3 450.255C1742.31 449.963 1741.28 449.819 1740.21 449.819C1739.21 449.819 1738.27 450.056 1737.38 450.529C1736.5 450.987 1735.73 451.65 1735.06 452.528C1734.39 453.402 1733.86 454.47 1733.48 455.727C1733.09 456.985 1732.9 458.408 1732.9 459.995C1732.9 463.313 1733.55 465.804 1734.86 467.463C1736.18 469.106 1738.01 469.925 1740.34 469.925C1741.39 469.925 1742.41 469.782 1743.39 469.489C1744.39 469.196 1745.34 468.758 1746.27 468.175V472.608ZM1772 473.237C1771.12 473.511 1770.22 473.701 1769.28 473.813C1768.35 473.94 1767.4 474.003 1766.43 474.003C1763.62 474.003 1761.53 473.227 1760.15 471.677C1758.76 470.108 1758.08 467.712 1758.08 464.481V450.146H1751.81V446.153H1758.08V438.601L1761.95 437.368V446.153H1772V450.146H1761.95V464.098C1761.95 466.068 1762.37 467.547 1763.22 468.53C1764.08 469.498 1765.35 469.981 1767.01 469.981C1767.72 469.981 1768.5 469.919 1769.35 469.791C1770.2 469.645 1771.08 469.424 1772 469.134V473.237Z" fill="white" fill-opacity="0.72"/>
<ellipse cx="811" cy="325" rx="36" ry="38" fill="#ED654B"/>
<path fill-rule="evenodd" clip-rule="evenodd" d="M795.854 337.577C797.895 337.577 799.549 336.087 799.549 334.249C799.549 332.41 797.895 330.92 795.854 330.92C793.814 330.92 792.16 332.41 792.16 334.249C792.16 336.087 793.814 337.577 795.854 337.577ZM795.854 336.165C797.029 336.165 797.981 335.307 797.981 334.249C797.981 333.19 797.029 332.332 795.854 332.332C794.679 332.332 793.727 333.19 793.727 334.249C793.727 335.307 794.679 336.165 795.854 336.165Z" fill="black"/>
<path d="M795.358 331.491C797.564 322.719 788.681 314.64 795.358 307.504C803.21 299.11 818.546 299.11 826.398 307.504C833.074 314.64 822.971 322.469 826.398 331.491" stroke="black" stroke-width="3"/>
<path fill-rule="evenodd" clip-rule="evenodd" d="M825.882 337.577C827.923 337.577 829.577 336.087 829.577 334.249C829.577 332.41 827.923 330.92 825.882 330.92C823.842 330.92 822.188 332.41 822.188 334.249C822.188 336.087 823.842 337.577 825.882 337.577ZM825.882 336.165C827.057 336.165 828.009 335.307 828.009 334.249C828.009 333.19 827.057 332.332 825.882 332.332C824.707 332.332 823.755 333.19 823.755 334.249C823.755 335.307 824.707 336.165 825.882 336.165Z" fill="black"/>
<path fill-rule="evenodd" clip-rule="evenodd" d="M803.243 321.974C805.284 321.974 806.938 320.484 806.938 318.646C806.938 316.808 805.284 315.318 803.243 315.318C801.203 315.318 799.549 316.808 799.549 318.646C799.549 320.484 801.203 321.974 803.243 321.974ZM803.243 320.562C804.418 320.562 805.37 319.704 805.37 318.646C805.37 317.587 804.418 316.729 803.243 316.729C802.068 316.729 801.116 317.587 801.116 318.646C801.116 319.704 802.068 320.562 803.243 320.562Z" fill="black"/>
<path fill-rule="evenodd" clip-rule="evenodd" d="M818.493 321.974C820.533 321.974 822.188 320.484 822.188 318.646C822.188 316.808 820.533 315.318 818.493 315.318C816.453 315.318 814.798 316.808 814.798 318.646C814.798 320.484 816.453 321.974 818.493 321.974ZM818.493 320.562C819.668 320.562 820.62 319.704 820.62 318.646C820.62 317.587 819.668 316.729 818.493 316.729C817.318 316.729 816.366 317.587 816.366 318.646C816.366 319.704 817.318 320.562 818.493 320.562Z" fill="black"/>
<path fill-rule="evenodd" clip-rule="evenodd" d="M811.068 347.973C813.108 347.973 814.763 346.483 814.763 344.644C814.763 342.806 813.108 341.316 811.068 341.316C809.028 341.316 807.373 342.806 807.373 344.644C807.373 346.483 809.028 347.973 811.068 347.973ZM811.068 346.561C812.243 346.561 813.195 345.703 813.195 344.644C813.195 343.586 812.243 342.728 811.068 342.728C809.893 342.728 808.941 343.586 808.941 344.644C808.941 345.703 809.893 346.561 811.068 346.561Z" fill="black"/>
<path d="M810.967 327.318V342.122M810.967 327.318L805.207 321.182M810.967 327.318L816.883 321.182" stroke="black" stroke-width="3"/>
<path d="M696.66 160.844H676.543V221H664.922V160.844H644.854V150.98H696.66V160.844ZM738.213 199.076H704.131C704.261 203.699 705.677 207.263 708.379 209.77C711.113 212.276 714.857 213.529 719.609 213.529C724.948 213.529 729.847 211.934 734.307 208.744V217.875C729.749 220.74 723.727 222.172 716.24 222.172C708.883 222.172 703.105 219.91 698.906 215.385C694.74 210.827 692.656 204.431 692.656 196.195C692.656 188.415 694.951 182.084 699.541 177.201C704.163 172.286 709.893 169.828 716.729 169.828C723.564 169.828 728.854 172.025 732.598 176.42C736.341 180.814 738.213 186.918 738.213 194.73V199.076ZM727.275 191.068C727.243 186.999 726.283 183.842 724.395 181.596C722.507 179.317 719.902 178.178 716.582 178.178C713.327 178.178 710.56 179.366 708.281 181.742C706.035 184.118 704.652 187.227 704.131 191.068H727.275ZM784.795 218.705C780.791 221.016 776.055 222.172 770.586 222.172C763.164 222.172 757.174 219.861 752.617 215.238C748.06 210.583 745.781 204.561 745.781 197.172C745.781 188.936 748.223 182.328 753.105 177.348C758.021 172.335 764.58 169.828 772.783 169.828C777.34 169.828 781.361 170.626 784.844 172.221V182.768C781.361 180.163 777.65 178.861 773.711 178.861C768.926 178.861 765.003 180.489 761.943 183.744C758.883 186.967 757.354 191.199 757.354 196.439C757.354 201.615 758.786 205.701 761.65 208.695C764.548 211.69 768.421 213.188 773.271 213.188C777.34 213.188 781.182 211.739 784.795 208.842V218.705ZM840.508 221H829.18V193.656C829.18 183.76 825.876 178.812 819.268 178.812C815.947 178.812 813.148 180.245 810.869 183.109C808.59 185.974 807.451 189.636 807.451 194.096V221H796.074V146.977H807.451V179.301H807.646C811.423 172.986 816.826 169.828 823.857 169.828C834.958 169.828 840.508 176.615 840.508 190.189V221ZM512.529 328.609V354H500.957V283.98H522.197C530.238 283.98 536.471 285.852 540.898 289.596C545.326 293.339 547.539 298.613 547.539 305.416C547.539 312.219 545.228 317.786 540.605 322.115C535.983 326.445 529.733 328.609 521.855 328.609H512.529ZM512.529 293.551V319.137H520.049C525.029 319.137 528.822 317.981 531.426 315.67C534.03 313.359 535.332 310.104 535.332 305.904C535.332 297.669 530.547 293.551 520.977 293.551H512.529ZM602.617 354H591.289V326.656C591.289 316.76 587.985 311.812 581.377 311.812C578.057 311.812 575.257 313.245 572.979 316.109C570.7 318.974 569.561 322.636 569.561 327.096V354H558.184V279.977H569.561V312.301H569.756C573.532 305.986 578.936 302.828 585.967 302.828C597.067 302.828 602.617 309.615 602.617 323.189V354ZM654.766 354H643.779V346.188H643.584C640.133 352.177 635.072 355.172 628.398 355.172C623.483 355.172 619.626 353.837 616.826 351.168C614.059 348.499 612.676 344.967 612.676 340.572C612.676 331.132 618.112 325.631 628.984 324.068L643.828 321.969C643.828 314.84 640.443 311.275 633.672 311.275C627.715 311.275 622.344 313.326 617.559 317.428V307.516C622.832 304.391 628.919 302.828 635.82 302.828C648.451 302.828 654.766 309.046 654.766 321.48V354ZM643.828 329.439L633.33 330.904C630.075 331.327 627.617 332.125 625.957 333.297C624.329 334.436 623.516 336.454 623.516 339.352C623.516 341.467 624.264 343.209 625.762 344.576C627.292 345.911 629.326 346.578 631.865 346.578C635.316 346.578 638.164 345.374 640.41 342.965C642.689 340.523 643.828 337.464 643.828 333.785V329.439ZM713.164 354H701.836V325.826C701.836 316.484 698.532 311.812 691.924 311.812C688.473 311.812 685.625 313.115 683.379 315.719C681.133 318.29 680.01 321.546 680.01 325.484V354H668.633V304H680.01V312.301H680.205C683.949 305.986 689.352 302.828 696.416 302.828C701.852 302.828 706.003 304.602 708.867 308.15C711.732 311.666 713.164 316.76 713.164 323.434V354ZM753.398 353.463C751.185 354.57 748.271 355.123 744.658 355.123C734.958 355.123 730.107 350.468 730.107 341.158V312.887H721.758V304H730.107V292.428L741.436 289.205V304H753.398V312.887H741.436V337.887C741.436 340.849 741.973 342.965 743.047 344.234C744.121 345.504 745.911 346.139 748.418 346.139C750.339 346.139 751.999 345.585 753.398 344.479V353.463ZM948.076 354H936.748V326.754C936.748 321.513 935.999 317.721 934.502 315.377C933.037 313.033 930.547 311.861 927.031 311.861C924.069 311.861 921.546 313.342 919.463 316.305C917.412 319.267 916.387 322.815 916.387 326.949V354H905.01V325.826C905.01 316.516 901.722 311.861 895.146 311.861C892.087 311.861 889.564 313.261 887.578 316.061C885.625 318.86 884.648 322.49 884.648 326.949V354H873.32V304H884.648V311.91H884.844C888.457 305.855 893.714 302.828 900.615 302.828C904.066 302.828 907.077 303.788 909.648 305.709C912.253 307.597 914.027 310.087 914.971 313.18C918.682 306.279 924.215 302.828 931.572 302.828C942.575 302.828 948.076 309.615 948.076 323.189V354ZM958.77 352.438V341.939C963.001 345.162 967.673 346.773 972.783 346.773C979.619 346.773 983.037 344.755 983.037 340.719C983.037 339.579 982.744 338.619 982.158 337.838C981.572 337.024 980.775 336.308 979.766 335.689C978.789 335.071 977.617 334.518 976.25 334.029C974.915 333.541 973.418 332.988 971.758 332.369C969.707 331.555 967.852 330.693 966.191 329.781C964.564 328.87 963.197 327.844 962.09 326.705C961.016 325.533 960.202 324.215 959.648 322.75C959.095 321.285 958.818 319.576 958.818 317.623C958.818 315.214 959.388 313.098 960.527 311.275C961.667 309.42 963.197 307.874 965.117 306.637C967.038 305.367 969.219 304.423 971.66 303.805C974.102 303.154 976.624 302.828 979.229 302.828C983.851 302.828 987.985 303.528 991.631 304.928V314.84C988.115 312.431 984.079 311.227 979.521 311.227C978.089 311.227 976.787 311.373 975.615 311.666C974.476 311.959 973.499 312.366 972.686 312.887C971.872 313.408 971.237 314.042 970.781 314.791C970.326 315.507 970.098 316.305 970.098 317.184C970.098 318.258 970.326 319.169 970.781 319.918C971.237 320.667 971.904 321.334 972.783 321.92C973.695 322.473 974.769 322.994 976.006 323.482C977.275 323.938 978.724 324.443 980.352 324.996C982.5 325.875 984.421 326.77 986.113 327.682C987.839 328.593 989.303 329.635 990.508 330.807C991.712 331.946 992.64 333.281 993.291 334.811C993.942 336.308 994.268 338.098 994.268 340.182C994.268 342.721 993.682 344.934 992.51 346.822C991.338 348.71 989.775 350.273 987.822 351.51C985.869 352.747 983.607 353.658 981.035 354.244C978.496 354.863 975.811 355.172 972.979 355.172C967.51 355.172 962.773 354.26 958.77 352.438Z" fill="#ED654B"/>
<path d="M1557.83 346H1546.62L1524.69 320.781V346H1516.53V279.766H1524.69V320.453L1545.83 298.938H1556.61L1534.53 320.641L1557.83 346ZM1584.31 286.469H1570.39V279.766H1592.56V339.203H1606.58V346H1568.84V339.203H1584.31V286.469ZM1651.3 346L1651.11 339.672C1648.55 342.203 1645.94 344.031 1643.28 345.156C1640.66 346.281 1637.89 346.844 1634.98 346.844C1632.3 346.844 1630 346.5 1628.09 345.812C1626.19 345.125 1624.61 344.188 1623.36 343C1622.14 341.781 1621.23 340.359 1620.64 338.734C1620.08 337.109 1619.8 335.344 1619.8 333.438C1619.8 328.719 1621.55 325.031 1625.05 322.375C1628.58 319.688 1633.78 318.344 1640.66 318.344H1650.41V314.219C1650.41 311.438 1649.52 309.219 1647.73 307.562C1645.95 305.875 1643.23 305.031 1639.58 305.031C1636.92 305.031 1634.3 305.328 1631.7 305.922C1629.14 306.516 1626.48 307.359 1623.73 308.453V301.094C1624.77 300.719 1625.91 300.359 1627.16 300.016C1628.44 299.641 1629.78 299.312 1631.19 299.031C1632.59 298.75 1634.06 298.531 1635.59 298.375C1637.12 298.188 1638.67 298.094 1640.23 298.094C1643.08 298.094 1645.64 298.406 1647.92 299.031C1650.2 299.656 1652.12 300.609 1653.69 301.891C1655.28 303.172 1656.5 304.781 1657.34 306.719C1658.19 308.656 1658.61 310.938 1658.61 313.562V346H1651.3ZM1650.41 324.578H1640.05C1638.02 324.578 1636.27 324.781 1634.8 325.188C1633.33 325.594 1632.12 326.172 1631.19 326.922C1630.25 327.672 1629.55 328.578 1629.08 329.641C1628.64 330.672 1628.42 331.844 1628.42 333.156C1628.42 334.062 1628.56 334.938 1628.84 335.781C1629.12 336.594 1629.58 337.328 1630.2 337.984C1630.83 338.609 1631.64 339.109 1632.64 339.484C1633.64 339.859 1634.86 340.047 1636.3 340.047C1638.17 340.047 1640.31 339.484 1642.72 338.359C1645.16 337.203 1647.72 335.391 1650.41 332.922V324.578ZM1671.45 323.453C1671.45 319.453 1672 315.906 1673.09 312.812C1674.19 309.688 1675.73 307.062 1677.73 304.938C1679.77 302.781 1682.19 301.156 1685 300.062C1687.84 298.938 1691 298.375 1694.47 298.375C1695.97 298.375 1697.44 298.469 1698.88 298.656C1700.34 298.844 1701.78 299.141 1703.19 299.547V279.766H1711.39V346H1704.08L1703.8 337.094C1701.52 340.406 1699.05 342.859 1696.39 344.453C1693.73 346.047 1690.86 346.844 1687.77 346.844C1685.08 346.844 1682.7 346.281 1680.64 345.156C1678.61 344.031 1676.91 342.453 1675.53 340.422C1674.19 338.359 1673.17 335.891 1672.48 333.016C1671.8 330.141 1671.45 326.953 1671.45 323.453ZM1679.8 322.938C1679.8 328.625 1680.62 332.875 1682.28 335.688C1683.97 338.469 1686.34 339.859 1689.41 339.859C1691.47 339.859 1693.64 338.938 1695.92 337.094C1698.23 335.25 1700.66 332.516 1703.19 328.891V307.047C1701.84 306.422 1700.36 305.953 1698.73 305.641C1697.11 305.297 1695.5 305.125 1693.91 305.125C1689.47 305.125 1686 306.562 1683.5 309.438C1681.03 312.312 1679.8 316.812 1679.8 322.938ZM1742.66 305.688H1728.73V298.938H1750.91V339.203H1764.92V346H1727.19V339.203H1742.66V305.688ZM1745.52 279.203C1746.42 279.203 1747.27 279.375 1748.05 279.719C1748.83 280.031 1749.5 280.484 1750.06 281.078C1750.66 281.672 1751.11 282.359 1751.42 283.141C1751.77 283.891 1751.94 284.719 1751.94 285.625C1751.94 286.5 1751.77 287.328 1751.42 288.109C1751.11 288.891 1750.66 289.578 1750.06 290.172C1749.5 290.766 1748.83 291.234 1748.05 291.578C1747.27 291.891 1746.42 292.047 1745.52 292.047C1744.61 292.047 1743.77 291.891 1742.98 291.578C1742.2 291.234 1741.52 290.766 1740.92 290.172C1740.36 289.578 1739.91 288.891 1739.56 288.109C1739.25 287.328 1739.09 286.5 1739.09 285.625C1739.09 284.719 1739.25 283.891 1739.56 283.141C1739.91 282.359 1740.36 281.672 1740.92 281.078C1741.52 280.484 1742.2 280.031 1742.98 279.719C1743.77 279.375 1744.61 279.203 1745.52 279.203Z" fill="#13E900"/>
</g>
<path d="M352.275 402.019C366.518 384.761 376.602 364.436 381.745 342.625C384.286 331.821 385.558 320.754 385.534 309.652H75.4646C75.4579 320.468 76.6939 331.248 79.1482 341.78C84.2915 364.275 94.6401 385.238 109.356 402.97C124.149 420.75 142.691 435.008 163.643 444.713C184.594 454.418 207.432 459.327 230.504 459.087C279.969 458.981 323.963 436.788 352.275 402.019ZM440.37 165.711C446.943 186.926 450.279 209.017 450.263 231.235V474.94C450.259 485.706 446.369 496.105 439.313 504.211C432.257 512.317 422.514 517.58 411.89 519.025C401.265 520.47 390.479 517.998 381.53 512.069C372.581 506.139 366.076 497.153 363.221 486.776C362.409 483.447 360.524 480.481 357.859 478.34C355.193 476.199 351.898 475.004 348.485 474.94H346.485C343.072 475.004 339.776 476.199 337.111 478.34C334.445 480.481 332.56 483.447 331.749 486.776C329.164 496.164 323.585 504.441 315.867 510.339C308.148 516.237 298.716 519.431 289.017 519.431C279.317 519.431 269.885 516.237 262.167 510.339C254.449 504.441 248.869 496.164 246.285 486.776C245.473 483.447 243.588 480.481 240.923 478.34C238.257 476.199 234.962 475.004 231.549 474.94H229.447C226.034 475.004 222.738 476.199 220.073 478.34C217.407 480.481 215.522 483.447 214.711 486.776C212.126 496.164 206.547 504.441 198.829 510.339C191.11 516.237 181.678 519.431 171.979 519.431C162.279 519.431 152.847 516.237 145.129 510.339C137.41 504.441 131.831 496.164 129.247 486.776C128.435 483.447 126.55 480.481 123.885 478.34C121.219 476.199 117.924 475.004 114.511 474.94H112.511C109.098 475.004 105.802 476.199 103.137 478.34C100.471 480.481 98.5861 483.447 97.7748 486.776C94.9193 497.153 88.4144 506.139 79.4656 512.069C70.5167 517.998 59.7306 520.47 49.1058 519.025C38.4811 517.58 28.7381 512.317 21.6823 504.211C14.6265 496.105 10.7363 485.706 10.7324 474.94V231.125C10.718 208.909 14.0544 186.818 20.6283 165.605L32.5215 169.093C29.8117 178.072 28.4284 187.401 28.416 196.783C28.416 221.504 38.1964 245.213 55.6056 262.694C73.0149 280.174 96.6269 289.995 121.247 289.995C145.868 289.995 169.48 280.174 186.889 262.694C204.298 245.213 214.079 221.504 214.079 196.783H246.815C246.815 209.024 249.216 221.144 253.881 232.453C258.546 243.762 265.384 254.038 274.004 262.694C282.625 271.349 292.858 278.215 304.121 282.9C315.384 287.584 327.455 289.995 339.646 289.995C351.837 289.995 363.908 287.584 375.171 282.9C386.434 278.215 396.668 271.349 405.288 262.694C413.908 254.038 420.746 243.762 425.411 232.453C430.076 221.144 432.477 209.024 432.477 196.783C432.473 187.4 431.09 178.07 428.373 169.093L440.37 165.711Z" fill="#ED654B"/>
<path d="M440.375 165.711L428.481 169.199C421.872 147.914 407.887 129.712 389.061 117.89C370.236 106.067 347.816 101.408 325.863 104.756C303.911 108.104 283.879 119.238 269.399 136.14C254.919 153.042 246.948 174.593 246.93 196.888H214.194C214.19 174.584 206.226 153.02 191.745 136.106C177.263 119.193 157.225 108.051 135.264 104.701C113.303 101.351 90.8731 106.015 72.0429 117.846C53.2126 129.678 39.229 147.894 32.6281 169.191L20.735 165.704C34.6543 120.756 62.5254 81.4558 100.275 53.5472C138.025 25.6386 183.675 10.5844 230.553 10.5844C277.432 10.5844 323.081 25.6386 360.831 53.5472C398.581 81.4558 426.452 120.756 440.372 165.704L440.375 165.711Z" fill="#ED654B"/>
<path d="M428.372 169.199C431.082 178.177 432.465 187.507 432.477 196.888C432.396 220.307 423.508 242.831 407.591 259.949C391.675 277.067 369.907 287.517 346.644 289.205C323.382 290.893 300.343 283.696 282.14 269.054C263.938 254.411 251.916 233.406 248.482 210.242C245.047 187.078 250.454 163.467 263.619 144.136C276.784 124.805 296.736 111.181 319.479 105.992C342.223 100.802 366.079 104.431 386.271 116.152C406.463 127.873 421.5 146.819 428.372 169.199ZM387.324 196.887C387.324 187.439 384.534 178.203 379.306 170.348C374.079 162.492 366.649 156.369 357.956 152.754C349.263 149.138 339.697 148.192 330.468 150.035C321.24 151.879 312.763 156.428 306.11 163.109C299.456 169.789 294.925 178.301 293.09 187.567C291.254 196.834 292.196 206.439 295.797 215.167C299.398 223.896 305.495 231.357 313.319 236.606C321.143 241.855 330.34 244.656 339.75 244.656C345.999 244.663 352.188 243.432 357.963 241.033C363.738 238.635 368.985 235.117 373.404 230.679C377.823 226.242 381.327 220.974 383.716 215.175C386.104 209.377 387.33 203.162 387.324 196.887Z" fill="#FEC758"/>
<path d="M75.4647 309.545H385.534C385.564 320.648 384.292 331.715 381.745 342.518L377.957 341.673H79.1438C76.6851 331.142 75.4505 320.361 75.4647 309.545V309.545Z" fill="white"/>
<path d="M349.222 163.492C352.99 163.492 356.673 164.613 359.806 166.715C362.939 168.817 365.38 171.804 366.822 175.3C368.264 178.795 368.641 182.641 367.906 186.352C367.171 190.062 365.357 193.47 362.693 196.145C360.028 198.821 356.634 200.642 352.939 201.38C349.243 202.119 345.413 201.74 341.932 200.292C338.451 198.844 335.476 196.392 333.383 193.247C331.289 190.101 330.172 186.403 330.172 182.62C330.172 180.108 330.664 177.62 331.621 175.299C332.578 172.978 333.981 170.869 335.75 169.093C337.52 167.316 339.62 165.907 341.931 164.946C344.243 163.985 346.72 163.491 349.222 163.492Z" fill="white"/>
<path d="M315.963 206.398C317.832 206.419 319.653 206.994 321.197 208.052C322.741 209.11 323.939 210.602 324.64 212.342C325.34 214.082 325.513 215.991 325.136 217.829C324.759 219.667 323.848 221.352 322.519 222.671C321.19 223.991 319.503 224.887 317.668 225.245C315.833 225.604 313.934 225.409 312.209 224.686C310.485 223.963 309.011 222.744 307.975 221.183C306.939 219.621 306.386 217.786 306.386 215.909C306.417 213.378 307.439 210.961 309.232 209.181C311.024 207.401 313.442 206.402 315.963 206.398V206.398Z" fill="white"/>
<path d="M121.249 103.675C139.609 103.675 157.557 109.141 172.823 119.384C188.089 129.626 199.988 144.184 207.014 161.216C214.04 178.248 215.878 196.99 212.296 215.072C208.714 233.153 199.873 249.762 186.89 262.798C173.908 275.834 157.367 284.711 139.359 288.308C121.352 291.905 102.686 290.059 85.7238 283.004C68.7611 275.949 54.2628 264.001 44.0624 248.673C33.8619 233.344 28.4175 215.322 28.4175 196.887C28.4221 187.504 29.8055 178.174 32.523 169.197C38.4288 150.208 50.2218 133.61 66.1824 121.823C82.143 110.036 101.436 103.678 121.249 103.675V103.675ZM168.823 196.887C168.823 187.439 166.033 178.203 160.805 170.348C155.578 162.492 148.148 156.369 139.455 152.754C130.762 149.138 121.196 148.192 111.968 150.035C102.739 151.879 94.2621 156.428 87.6087 163.109C80.9554 169.789 76.4244 178.301 74.5887 187.567C72.7531 196.834 73.6952 206.439 77.296 215.167C80.8967 223.896 86.9944 231.357 94.818 236.606C102.642 241.855 111.839 244.656 121.249 244.656C127.498 244.663 133.687 243.432 139.462 241.033C145.237 238.635 150.484 235.117 154.903 230.679C159.322 226.242 162.826 220.974 165.215 215.175C167.603 209.377 168.829 203.162 168.823 196.887V196.887Z" fill="#FEC758"/>
<path d="M130.826 163.492C134.594 163.492 138.277 164.613 141.41 166.715C144.543 168.817 146.985 171.804 148.426 175.3C149.868 178.795 150.245 182.641 149.51 186.352C148.775 190.062 146.961 193.47 144.297 196.146C141.633 198.821 138.238 200.642 134.543 201.381C130.848 202.119 127.017 201.74 123.536 200.292C120.055 198.844 117.08 196.392 114.987 193.247C112.894 190.101 111.776 186.403 111.776 182.62C111.776 180.108 112.268 177.62 113.225 175.299C114.182 172.978 115.586 170.869 117.355 169.093C119.124 167.316 121.224 165.907 123.536 164.946C125.847 163.985 128.325 163.491 130.826 163.492Z" fill="white"/>
<path d="M120.828 415.227C116.789 411.312 112.959 407.185 109.356 402.863L110.303 402.017H117.25C148.838 402.005 180.222 407.108 210.192 417.13L230.505 423.894L247.767 418.082C279.701 407.394 313.14 401.934 346.802 401.912H352.275C338.291 418.574 321.069 432.196 301.663 441.945C282.256 451.695 261.072 457.366 239.407 458.612C217.743 459.859 196.052 456.654 175.663 449.194C155.275 441.734 136.616 430.176 120.828 415.227V415.227Z" fill="#7FB8E3"/>
<path d="M97.5676 206.398C99.4364 206.419 101.257 206.995 102.801 208.052C104.345 209.11 105.543 210.603 106.244 212.342C106.945 214.082 107.117 215.991 106.74 217.829C106.363 219.667 105.452 221.352 104.123 222.672C102.795 223.991 101.107 224.887 99.2721 225.245C97.4376 225.604 95.5384 225.409 93.8136 224.686C92.0889 223.963 90.6156 222.744 89.5794 221.183C88.5431 219.621 87.9901 217.786 87.99 215.91C87.9846 214.65 88.2295 213.402 88.7102 212.239C89.191 211.076 89.8979 210.02 90.7898 209.135C91.6816 208.249 92.7404 207.551 93.9042 207.081C95.068 206.611 96.3134 206.379 97.5676 206.398V206.398Z" fill="white"/>
<path d="M339.751 149.119C330.342 149.119 321.144 151.921 313.32 157.17C305.497 162.419 299.399 169.879 295.798 178.608C292.198 187.337 291.255 196.941 293.091 206.208C294.927 215.474 299.458 223.986 306.111 230.666C312.765 237.347 321.241 241.897 330.47 243.74C339.698 245.583 349.264 244.637 357.957 241.021C366.65 237.406 374.08 231.283 379.308 223.428C384.535 215.572 387.325 206.336 387.325 196.888C387.332 190.613 386.106 184.399 383.717 178.6C381.329 172.801 377.825 167.533 373.406 163.096C368.987 158.659 363.74 155.14 357.965 152.742C352.19 150.344 346.001 149.112 339.751 149.119V149.119ZM315.965 225.528C314.091 225.528 312.26 224.97 310.702 223.925C309.144 222.88 307.93 221.394 307.213 219.656C306.496 217.918 306.309 216.006 306.674 214.161C307.04 212.316 307.942 210.621 309.267 209.291C310.592 207.961 312.279 207.055 314.117 206.688C315.954 206.321 317.859 206.509 319.59 207.229C321.321 207.949 322.8 209.168 323.841 210.732C324.882 212.296 325.437 214.135 325.437 216.017C325.424 218.535 324.421 220.947 322.648 222.728C320.874 224.509 318.472 225.515 315.963 225.528H315.965ZM349.224 201.644C345.456 201.644 341.773 200.522 338.64 198.42C335.507 196.318 333.066 193.331 331.624 189.836C330.182 186.341 329.805 182.495 330.54 178.784C331.275 175.073 333.089 171.665 335.753 168.99C338.417 166.315 341.812 164.493 345.507 163.755C349.203 163.017 353.033 163.396 356.514 164.844C359.995 166.291 362.97 168.743 365.063 171.889C367.157 175.034 368.274 178.733 368.274 182.516C368.274 185.028 367.782 187.516 366.825 189.837C365.868 192.158 364.465 194.266 362.695 196.043C360.926 197.819 358.826 199.228 356.515 200.189C354.203 201.15 351.726 201.645 349.224 201.644V201.644Z" fill="black"/>
<path d="M121.25 244.656C130.66 244.656 139.858 241.855 147.681 236.606C155.505 231.357 161.602 223.896 165.203 215.167C168.804 206.439 169.746 196.834 167.91 187.567C166.075 178.301 161.544 169.789 154.89 163.109C148.237 156.428 139.76 151.879 130.532 150.035C121.303 148.192 111.737 149.138 103.044 152.754C94.3514 156.369 86.9213 162.492 81.6938 170.348C76.4663 178.203 73.6761 187.439 73.6761 196.887C73.6696 203.162 74.8957 209.376 77.2842 215.175C79.6727 220.974 83.1767 226.242 87.5957 230.679C92.0147 235.117 97.2618 238.635 103.037 241.033C108.812 243.432 115.001 244.663 121.25 244.656V244.656ZM130.828 163.492C134.596 163.492 138.279 164.613 141.412 166.715C144.544 168.817 146.986 171.804 148.428 175.3C149.87 178.795 150.247 182.641 149.512 186.352C148.777 190.062 146.963 193.47 144.298 196.145C141.634 198.821 138.24 200.642 134.544 201.38C130.849 202.119 127.019 201.74 123.538 200.292C120.057 198.844 117.082 196.392 114.988 193.247C112.895 190.101 111.778 186.403 111.778 182.62C111.777 180.108 112.27 177.62 113.227 175.299C114.184 172.978 115.587 170.869 117.356 169.093C119.125 167.316 121.225 165.907 123.537 164.946C125.849 163.985 128.326 163.491 130.828 163.492V163.492ZM97.5676 206.4C99.4364 206.42 101.257 206.996 102.801 208.054C104.345 209.111 105.543 210.604 106.244 212.344C106.945 214.083 107.117 215.992 106.74 217.83C106.363 219.668 105.452 221.353 104.123 222.673C102.795 223.993 101.107 224.888 99.2721 225.247C97.4376 225.605 95.5384 225.411 93.8136 224.688C92.0889 223.965 90.6156 222.746 89.5793 221.184C88.5431 219.622 87.9901 217.788 87.9899 215.911C87.9846 214.652 88.2295 213.404 88.7102 212.24C89.191 211.077 89.8979 210.022 90.7898 209.136C91.6816 208.25 92.7404 207.552 93.9042 207.082C95.0679 206.612 96.3134 206.38 97.5676 206.4V206.4Z" fill="black"/>
<path d="M393.323 67.636C354.167 28.3705 302.241 4.57197 247.044 0.593809C191.846 -3.38435 137.068 12.7238 92.7277 45.9716C53.84 75.2211 25.0856 115.998 10.5252 162.543C3.54175 184.73 -0.00798501 207.862 1.34869e-05 231.131V474.833C0.0232635 488.159 4.84789 501.026 13.5829 511.059C22.3179 521.091 34.3733 527.611 47.5227 529.415C60.6721 531.218 74.0272 528.183 85.1218 520.87C96.2164 513.558 104.301 502.461 107.882 489.629C108.121 488.567 108.706 487.615 109.545 486.926C110.385 486.236 111.429 485.849 112.514 485.825H114.514C115.607 485.873 116.653 486.283 117.491 486.99C118.328 487.697 118.91 488.662 119.145 489.735C122.367 501.317 129.276 511.523 138.816 518.793C148.356 526.063 160.004 529.999 171.981 529.999C183.958 529.999 195.605 526.063 205.146 518.793C214.686 511.523 221.595 501.317 224.817 489.735C225.051 488.661 225.631 487.695 226.469 486.988C227.307 486.28 228.355 485.872 229.448 485.825H231.55C232.645 485.868 233.694 486.276 234.533 486.984C235.371 487.692 235.951 488.659 236.182 489.735C239.404 501.317 246.312 511.523 255.853 518.793C265.393 526.063 277.041 529.999 289.018 529.999C300.994 529.999 312.642 526.063 322.182 518.793C331.723 511.523 338.631 501.317 341.854 489.735C342.073 488.654 342.65 487.679 343.491 486.97C344.332 486.26 345.387 485.856 346.485 485.825H348.485C349.58 485.869 350.63 486.277 351.469 486.986C352.307 487.695 352.887 488.664 353.116 489.741C356.7 502.581 364.793 513.684 375.899 520.996C387.004 528.309 400.371 531.336 413.528 529.519C426.684 527.702 438.741 521.162 447.467 511.111C456.194 501.059 461.001 488.174 460.998 474.839V231.128C461.006 207.859 457.457 184.727 450.473 162.54C439.333 126.737 419.724 94.1742 393.323 67.636ZM422.056 196.887C422.035 217.707 414.18 237.751 400.066 253.003C385.951 268.255 366.618 277.589 345.94 279.136C325.262 280.682 304.766 274.327 288.556 261.343C272.347 248.359 261.622 229.705 258.529 209.118C255.436 188.53 260.204 167.53 271.877 150.322C283.551 133.115 301.268 120.972 321.48 116.325C341.693 111.678 362.907 114.87 380.875 125.263C398.842 135.655 412.235 152.48 418.372 172.368C420.82 180.309 422.062 188.574 422.057 196.887H422.056ZM373.219 331.526H87.7722C87.14 327.304 86.721 324.129 86.4042 319.901H374.59C374.273 324.129 373.853 327.3 373.22 331.526H373.219ZM139.773 298.766C184.61 291.368 219.449 253.322 224.08 207.879H236.815C241.446 253.323 276.285 291.368 321.122 298.766H139.773ZM105.357 62.8758C145.633 32.6723 195.397 18.0466 245.536 21.6768C295.675 25.307 342.834 46.9502 378.379 82.6434C388.949 93.3136 398.369 105.074 406.481 117.73C404.902 116.357 403.218 114.983 401.534 113.715C383.673 100.319 361.939 93.1553 339.646 93.3173C314.012 93.2854 289.284 102.834 270.275 120.103C251.267 137.372 239.34 161.126 236.815 186.741H224.08C222.228 168.466 215.586 151.012 204.831 136.153C194.076 121.294 179.592 109.563 162.853 102.152C146.115 94.7423 127.719 91.9182 109.54 93.9679C91.361 96.0175 74.0475 102.868 59.3622 113.821C57.7178 115.004 56.1369 116.274 54.626 117.625C68.1563 96.489 85.3361 77.9484 105.357 62.8758ZM42.6262 172.368C48.7691 152.442 62.1835 135.583 80.182 125.167C98.1805 114.752 119.434 111.55 139.684 116.203C159.934 120.856 177.685 133.02 189.382 150.258C201.078 167.497 205.855 188.536 202.757 209.161C199.658 229.787 188.912 248.475 172.672 261.482C156.432 274.488 135.897 280.853 115.181 279.301C94.4648 277.749 75.098 268.394 60.9603 253.111C46.8226 237.828 38.9582 217.745 38.9426 196.887C38.9491 188.575 40.1907 180.311 42.6262 172.368ZM204.602 483.922C202.628 491.046 198.391 497.328 192.535 501.811C186.678 506.294 179.523 508.733 172.159 508.757C164.795 508.781 157.624 506.388 151.739 501.943C145.854 497.498 141.576 491.244 139.557 484.133C138.162 478.558 134.947 473.614 130.426 470.088C125.905 466.562 120.337 464.659 114.613 464.682H112.613C106.915 464.718 101.39 466.645 96.8969 470.164C92.4042 473.682 89.1965 478.593 87.7737 484.133C85.5241 492.036 80.5079 498.857 73.648 503.342C66.7881 507.826 58.5461 509.673 50.4384 508.541C42.3307 507.409 34.9028 503.375 29.5213 497.182C24.1398 490.989 21.1669 483.052 21.1494 474.833V231.128C21.1494 228.697 21.3597 226.161 21.4648 223.625C26.6571 242.552 37.0531 259.629 51.4623 272.9C65.8715 286.17 83.7113 295.098 102.939 298.66H65.2563V309.44C65.198 321.067 66.4692 332.662 69.045 343.997C74.5395 368.085 85.609 390.534 101.356 409.525C105.174 414.156 109.25 418.566 113.565 422.735C141.137 449.285 176.958 465.515 215.028 468.707C209.931 472.441 206.254 477.808 204.602 483.922ZM230.493 448.413C195.213 448.632 161.031 436.104 134.189 413.115C158.936 414.615 183.383 419.34 206.917 427.171L230.493 435.097L251.123 428.122C275.534 419.911 300.899 414.903 326.588 413.22C299.794 436.134 265.695 448.623 230.501 448.413H230.493ZM439.944 474.833C439.914 483.032 436.94 490.945 431.568 497.12C426.196 503.294 418.786 507.316 410.698 508.447C402.611 509.577 394.388 507.741 387.541 503.275C380.693 498.809 375.679 492.012 373.42 484.133C371.946 478.602 368.71 473.707 364.206 470.195C359.702 466.683 354.178 464.747 348.476 464.682H346.476C340.768 464.678 335.222 466.59 330.721 470.114C326.221 473.639 323.023 478.573 321.637 484.133C319.641 491.259 315.379 497.533 309.499 501.999C303.62 506.464 296.446 508.875 289.075 508.863C281.703 508.851 274.537 506.417 268.672 501.932C262.807 497.448 258.564 491.16 256.592 484.028C254.956 477.907 251.231 472.558 246.067 468.915C268.18 467.05 289.7 460.77 309.364 450.444C329.028 440.118 346.441 425.954 360.581 408.781C375.752 390.227 386.482 368.426 391.946 345.055C394.614 333.446 395.921 321.564 395.84 309.651V298.766H358.381C377.607 295.201 395.444 286.273 409.851 273.003C424.259 259.732 434.653 242.657 439.845 223.73C439.95 226.161 440.16 228.697 440.16 231.233V474.833H439.944Z" fill="black"/>
<defs>
<clipPath id="clip0">
<rect width="1675" height="691" fill="white" transform="translate(124 17)"/>
</clipPath>
</defs>
</svg>
